<?xml version="1.0" standalone="no"?><!-- Generator: Gravit.io --><svg xmlns="http://www.w3.org/2000/svg" xmlns:xlink="http://www.w3.org/1999/xlink" style="isolation:isolate" viewBox="0 0 1024 600" width="1024" height="600"><g opacity="0.64"><circle vector-effect="non-scaling-stroke" cx="203.99999999999994" cy="-18.999999999999943" r="262.00000000000006" fill="rgb(252,255,230)"/></g><path d="M 609.973 551.164 L 1056.792 141.787 C 1058.013 140.669 1059.912 140.752 1061.03 141.973 L 1061.03 141.973 C 1062.149 143.194 1062.066 145.093 1060.845 146.211 L 614.026 555.587 C 612.805 556.706 610.906 556.623 609.787 555.402 L 609.787 555.402 C 608.669 554.181 608.752 552.282 609.973 551.164 Z" style="stroke:none;fill:#FCFFE6;stroke-miterlimit:10;"/><path d="M 626.564 551.164 L 1073.383 141.787 C 1074.604 140.669 1076.503 140.752 1077.621 141.973 L 1077.621 141.973 C 1078.74 143.194 1078.657 145.093 1077.436 146.211 L 630.617 555.587 C 629.396 556.706 627.497 556.623 626.379 555.402 L 626.379 555.402 C 625.26 554.181 625.343 552.282 626.564 551.164 Z" style="stroke:none;fill:#FCFFE6;stroke-miterlimit:10;"/><path d="M 643.155 551.164 L 1089.974 141.787 C 1091.195 140.669 1093.094 140.752 1094.213 141.973 L 1094.213 141.973 C 1095.331 143.194 1095.248 145.093 1094.027 146.211 L 647.208 555.587 C 645.987 556.706 644.088 556.623 642.97 555.402 L 642.97 555.402 C 641.851 554.181 641.934 552.282 643.155 551.164 Z" style="stroke:none;fill:#FCFFE6;stroke-miterlimit:10;"/><path d="M 659.746 551.164 L 1106.565 141.787 C 1107.786 140.669 1109.685 140.752 1110.804 141.973 L 1110.804 141.973 C 1111.922 143.194 1111.839 145.093 1110.618 146.211 L 663.799 555.587 C 662.578 556.706 660.679 556.623 659.561 555.402 L 659.561 555.402 C 658.442 554.181 658.525 552.282 659.746 551.164 Z" style="stroke:none;fill:#FCFFE6;stroke-miterlimit:10;"/><path d="M 676.337 551.164 L 1123.156 141.787 C 1124.377 140.669 1126.276 140.752 1127.395 141.973 L 1127.395 141.973 C 1128.513 143.194 1128.43 145.093 1127.209 146.211 L 680.39 555.587 C 679.169 556.706 677.27 556.623 676.152 555.402 L 676.152 555.402 C 675.033 554.181 675.116 552.282 676.337 551.164 Z" style="stroke:none;fill:#FCFFE6;stroke-miterlimit:10;"/><path d="M 692.928 551.164 L 1139.747 141.787 C 1140.968 140.669 1142.867 140.752 1143.986 141.973 L 1143.986 141.973 C 1145.104 143.194 1145.021 145.093 1143.8 146.211 L 696.981 555.587 C 695.761 556.706 693.861 556.623 692.743 555.402 L 692.743 555.402 C 691.624 554.181 691.707 552.282 692.928 551.164 Z" style="stroke:none;fill:#FCFFE6;stroke-miterlimit:10;"/><path d="M 709.519 551.164 L 1156.338 141.787 C 1157.559 140.669 1159.458 140.752 1160.577 141.973 L 1160.577 141.973 C 1161.695 143.194 1161.612 145.093 1160.391 146.211 L 713.572 555.587 C 712.352 556.706 710.452 556.623 709.334 555.402 L 709.334 555.402 C 708.215 554.181 708.298 552.282 709.519 551.164 Z" style="stroke:none;fill:#FCFFE6;stroke-miterlimit:10;"/><path d="M 726.11 551.164 L 1172.929 141.787 C 1174.15 140.669 1176.049 140.752 1177.168 141.973 L 1177.168 141.973 C 1178.286 143.194 1178.203 145.093 1176.982 146.211 L 730.163 555.587 C 728.943 556.706 727.043 556.623 725.925 555.402 L 725.925 555.402 C 724.806 554.181 724.889 552.282 726.11 551.164 Z" style="stroke:none;fill:#FCFFE6;stroke-miterlimit:10;"/><path d="M 742.701 551.164 L 1189.52 141.787 C 1190.741 140.669 1192.64 140.752 1193.759 141.973 L 1193.759 141.973 C 1194.877 143.194 1194.794 145.093 1193.574 146.211 L 746.755 555.587 C 745.534 556.706 743.634 556.623 742.516 555.402 L 742.516 555.402 C 741.397 554.181 741.48 552.282 742.701 551.164 Z" style="stroke:none;fill:#FCFFE6;stroke-miterlimit:10;"/><path d="M 759.292 551.164 L 1206.111 141.787 C 1207.332 140.669 1209.231 140.752 1210.35 141.973 L 1210.35 141.973 C 1211.468 143.194 1211.385 145.093 1210.165 146.211 L 763.346 555.587 C 762.125 556.706 760.226 556.623 759.107 555.402 L 759.107 555.402 C 757.988 554.181 758.072 552.282 759.292 551.164 Z" style="stroke:none;fill:#FCFFE6;stroke-miterlimit:10;"/><path d="M 775.883 551.164 L 1222.702 141.787 C 1223.923 140.669 1225.823 140.752 1226.941 141.973 L 1226.941 141.973 C 1228.06 143.194 1227.976 145.093 1226.756 146.211 L 779.937 555.587 C 778.716 556.706 776.817 556.623 775.698 555.402 L 775.698 555.402 C 774.58 554.181 774.663 552.282 775.883 551.164 Z" style="stroke:none;fill:#FCFFE6;stroke-miterlimit:10;"/><path d="M 792.474 551.164 L 1239.294 141.787 C 1240.514 140.669 1242.414 140.752 1243.532 141.973 L 1243.532 141.973 C 1244.651 143.194 1244.568 145.093 1243.347 146.211 L 796.528 555.587 C 795.307 556.706 793.408 556.623 792.289 555.402 L 792.289 555.402 C 791.171 554.181 791.254 552.282 792.474 551.164 Z" style="stroke:none;fill:#FCFFE6;stroke-miterlimit:10;"/><path d="M 809.066 551.164 L 1255.885 141.787 C 1257.105 140.669 1259.005 140.752 1260.123 141.973 L 1260.123 141.973 C 1261.242 143.194 1261.159 145.093 1259.938 146.211 L 813.119 555.587 C 811.898 556.706 809.999 556.623 808.88 555.402 L 808.88 555.402 C 807.762 554.181 807.845 552.282 809.066 551.164 Z" style="stroke:none;fill:#FCFFE6;stroke-miterlimit:10;"/><path d="M 825.657 551.164 L 1272.476 141.787 C 1273.696 140.669 1275.596 140.752 1276.714 141.973 L 1276.714 141.973 C 1277.833 143.194 1277.75 145.093 1276.529 146.211 L 829.71 555.587 C 828.489 556.706 826.59 556.623 825.471 555.402 L 825.471 555.402 C 824.353 554.181 824.436 552.282 825.657 551.164 Z" style="stroke:none;fill:#FCFFE6;stroke-miterlimit:10;"/><path d="M 842.248 551.164 L 1289.067 141.787 C 1290.288 140.669 1292.187 140.752 1293.305 141.973 L 1293.305 141.973 C 1294.424 143.194 1294.341 145.093 1293.12 146.211 L 846.301 555.587 C 845.08 556.706 843.181 556.623 842.062 555.402 L 842.062 555.402 C 840.944 554.181 841.027 552.282 842.248 551.164 Z" style="stroke:none;fill:#FCFFE6;stroke-miterlimit:10;"/><path d="M 858.839 551.164 L 1305.658 141.787 C 1306.879 140.669 1308.778 140.752 1309.896 141.973 L 1309.896 141.973 C 1311.015 143.194 1310.932 145.093 1309.711 146.211 L 862.892 555.587 C 861.671 556.706 859.772 556.623 858.653 555.402 L 858.653 555.402 C 857.535 554.181 857.618 552.282 858.839 551.164 Z" style="stroke:none;fill:#FCFFE6;stroke-miterlimit:10;"/><path d="M 875.43 551.164 L 1322.249 141.787 C 1323.47 140.669 1325.369 140.752 1326.487 141.973 L 1326.487 141.973 C 1327.606 143.194 1327.523 145.093 1326.302 146.211 L 879.483 555.587 C 878.262 556.706 876.363 556.623 875.244 555.402 L 875.244 555.402 C 874.126 554.181 874.209 552.282 875.43 551.164 Z" style="stroke:none;fill:#FCFFE6;stroke-miterlimit:10;"/><path d="M 892.021 551.164 L 1338.84 141.787 C 1340.061 140.669 1341.96 140.752 1343.078 141.973 L 1343.078 141.973 C 1344.197 143.194 1344.114 145.093 1342.893 146.211 L 896.074 555.587 C 894.853 556.706 892.954 556.623 891.835 555.402 L 891.835 555.402 C 890.717 554.181 890.8 552.282 892.021 551.164 Z" style="stroke:none;fill:#FCFFE6;stroke-miterlimit:10;"/><path d="M 908.612 551.164 L 1355.431 141.787 C 1356.652 140.669 1358.551 140.752 1359.67 141.973 L 1359.67 141.973 C 1360.788 143.194 1360.705 145.093 1359.484 146.211 L 912.665 555.587 C 911.444 556.706 909.545 556.623 908.427 555.402 L 908.427 555.402 C 907.308 554.181 907.391 552.282 908.612 551.164 Z" style="stroke:none;fill:#FCFFE6;stroke-miterlimit:10;"/><path d="M 925.203 551.164 L 1372.022 141.787 C 1373.243 140.669 1375.142 140.752 1376.261 141.973 L 1376.261 141.973 C 1377.379 143.194 1377.296 145.093 1376.075 146.211 L 929.256 555.587 C 928.035 556.706 926.136 556.623 925.018 555.402 L 925.018 555.402 C 923.899 554.181 923.982 552.282 925.203 551.164 Z" style="stroke:none;fill:#FCFFE6;stroke-miterlimit:10;"/><path d="M 941.794 551.164 L 1388.613 141.787 C 1389.834 140.669 1391.733 140.752 1392.852 141.973 L 1392.852 141.973 C 1393.97 143.194 1393.887 145.093 1392.666 146.211 L 945.847 555.587 C 944.626 556.706 942.727 556.623 941.609 555.402 L 941.609 555.402 C 940.49 554.181 940.573 552.282 941.794 551.164 Z" style="stroke:none;fill:#FCFFE6;stroke-miterlimit:10;"/><path d="M 958.385 551.164 L 1405.204 141.787 C 1406.425 140.669 1408.324 140.752 1409.443 141.973 L 1409.443 141.973 C 1410.561 143.194 1410.478 145.093 1409.257 146.211 L 962.438 555.587 C 961.218 556.706 959.318 556.623 958.2 555.402 L 958.2 555.402 C 957.081 554.181 957.164 552.282 958.385 551.164 Z" style="stroke:none;fill:#FCFFE6;stroke-miterlimit:10;"/><path d="M 974.976 551.164 L 1421.795 141.787 C 1423.016 140.669 1424.915 140.752 1426.034 141.973 L 1426.034 141.973 C 1427.152 143.194 1427.069 145.093 1425.848 146.211 L 979.029 555.587 C 977.809 556.706 975.909 556.623 974.791 555.402 L 974.791 555.402 C 973.672 554.181 973.755 552.282 974.976 551.164 Z" style="stroke:none;fill:#FCFFE6;stroke-miterlimit:10;"/></svg>