<?xml version="1.0" encoding="UTF-8"?>
<!DOCTYPE svg PUBLIC "-//W3C//DTD SVG 1.1//EN" "http://www.w3.org/Graphics/SVG/1.1/DTD/svg11.dtd">
<!-- Creator: CorelDRAW 2017 -->
<svg xmlns="http://www.w3.org/2000/svg" xml:space="preserve" width="601px" height="199px" version="1.1" style="shape-rendering:geometricPrecision; text-rendering:geometricPrecision; image-rendering:optimizeQuality; fill-rule:evenodd; clip-rule:evenodd"
viewBox="0 0 608.9 201.8"
 xmlns:xlink="http://www.w3.org/1999/xlink">
 <defs>
  <style type="text/css">
   <![CDATA[
    .fil2 {fill:none}
    .fil0 {fill:#0F1B14;fill-rule:nonzero}
    .fil1 {fill:#93C148;fill-rule:nonzero}
   ]]>
  </style>
 </defs>
 <g id="Layer_x0020_1">
  <metadata id="CorelCorpID_0Corel-Layer"/>
  <g id="_2021828436656">
   <path class="fil0" d="M163.75 93.21c0,-6.79 -5.32,-12.27 -11.9,-12.27 -6.57,0 -11.89,5.48 -11.89,12.27 0,6.76 5.32,12.24 11.89,12.24 6.58,0 11.9,-5.48 11.9,-12.24zm6.31 -17.67l0 35.31 -6.46 0 0 -5.72c-3.14,3.94 -7.8,6.44 -13.02,6.44 -9.45,0 -17.09,-8.21 -17.09,-18.35 0,-10.18 7.64,-18.39 17.09,-18.39 5.22,0 9.88,2.5 13.02,6.45l0 -5.74 6.46 0z"/>
   <path class="fil0" d="M204.72 93.21c0,-6.79 -5.32,-12.27 -11.9,-12.27 -6.57,0 -11.89,5.48 -11.89,12.27 0,6.76 5.32,12.24 11.89,12.24 6.58,0 11.9,-5.48 11.9,-12.24zm6.32 -17.67l-0.01 32.89c0,11.45 -7.26,18.19 -18.43,18.27 -5.66,0.03 -12.15,-1.84 -17.16,-4.87l2.9 -5.79c4.09,2.6 9.51,4.21 14.24,4.21 7.31,0 11.99,-3.8 11.99,-11.82l0 -3.3c-3.14,3.94 -7.8,6.44 -13.01,6.44 -9.46,0 -17.1,-8.21 -17.1,-18.35 0,-10.18 7.64,-18.39 17.1,-18.39 5.21,0 9.87,2.5 13.01,6.45l0 -5.74 6.47 0z"/>
   <path class="fil0" d="M235.96 74.83l-0.01 6.97c-6.4,-0.62 -13.33,3.89 -13.33,12.73l0 16.32 -6.47 0 0 -35.31 6.47 0 0 5.11c3.16,-3.54 7.96,-5.82 13.34,-5.82z"/>
   <path class="fil0" d="M241.09 75.54l6.47 0 0 35.31 -6.47 0 0 -35.31zm-0.64 -8.67c0,-2.17 1.73,-3.92 3.88,-3.92 2.14,0 3.87,1.75 3.87,3.92 0,2.17 -1.73,3.93 -3.87,3.93 -2.15,0 -3.88,-1.76 -3.88,-3.93z"/>
   <path class="fil0" d="M280.26 100.47l4.44 4.09c-3.35,4.24 -8.55,6.96 -14.39,6.96 -10.16,0 -18.36,-8.21 -18.36,-18.35 0,-10.13 8.2,-18.34 18.36,-18.34 5.84,0 11.04,2.71 14.39,6.95l-4.44 4.1c-2.25,-2.79 -5.96,-4.94 -9.95,-4.94 -6.5,0 -11.89,5.48 -11.89,12.23 0,6.75 5.39,12.23 11.89,12.23 3.99,0 7.7,-2.14 9.95,-4.93z"/>
   <path class="fil1" d="M288.39 106.67l2.86 -5.13c2.27,1.44 6.83,3.76 12.35,3.73 4.11,-0.02 8.04,-1.46 8.02,-4.21 -0.03,-3.22 -3.99,-3.99 -7.7,-4.64 -6.55,-1.17 -13.8,-3.37 -13.83,-11.11 -0.03,-7.42 7.72,-10.58 14.09,-10.61 4.84,-0.03 10.74,2.13 14.62,4.82l-2.84 5.03c-2.53,-1.76 -7.49,-3.76 -11.73,-3.73 -4.36,0.03 -7.19,1.73 -7.17,4.28 0.03,3.4 3.75,4.23 6.85,4.85 7.82,1.56 14.64,3.38 14.68,10.75 0.03,7.82 -8.95,10.71 -14.83,10.74 -5.14,0.02 -11.38,-2.15 -15.37,-4.77z"/>
   <path class="fil1" d="M352.72 93.18c0,-6.76 -5.32,-12.24 -11.9,-12.24 -6.57,0 -11.89,5.48 -11.89,12.24 0,6.79 5.32,12.27 11.89,12.27 6.58,0 11.9,-5.48 11.9,-12.27zm6.32 -17.64l0 51.16 -6.47 0 0 -21.58c-3.14,3.95 -7.8,6.45 -13.01,6.45 -9.46,0 -17.1,-8.21 -17.1,-18.4 0,-10.13 7.64,-18.34 17.1,-18.34 5.21,0 9.87,2.5 13.01,6.44l0 -5.73 6.47 0z"/>
   <path class="fil1" d="M398.72 75.54l0 35.31 -6.47 0 0 -5.23c-2.88,3.63 -7.33,5.95 -12.34,5.95 -8.71,0 -15.76,-7.06 -15.76,-15.76l0 -20.25 6.47 0 0 18.73c0,6.16 4.84,11.16 10.82,11.16 5.97,0 10.81,-5 10.81,-11.16l0 -18.75 6.47 0z"/>
   <path class="fil1" d="M433.37 93.21c0,-6.79 -5.32,-12.27 -11.9,-12.27 -6.57,0 -11.89,5.48 -11.89,12.27 0,6.76 5.32,12.24 11.89,12.24 6.58,0 11.9,-5.48 11.9,-12.24zm6.32 -17.67l0 35.31 -6.47 0 0 -5.72c-3.14,3.94 -7.8,6.44 -13.02,6.44 -9.45,0 -17.09,-8.21 -17.09,-18.35 0,-10.18 7.64,-18.39 17.09,-18.39 5.22,0 9.88,2.5 13.02,6.45l0 -5.74 6.47 0z"/>
   <path class="fil1" d="M464.61 74.83l-0.01 6.97c-6.4,-0.62 -13.33,3.89 -13.33,12.73l0 16.32 -6.47 0 0 -35.31 6.47 0 0 5.11c3.16,-3.54 7.96,-5.82 13.34,-5.82z"/>
   <path class="fil1" d="M495.25 90.73c-1.04,-5.58 -5.55,-9.78 -10.95,-9.78 -5.41,0 -9.92,4.2 -10.96,9.78l21.91 0zm-10 14.72c4.1,-0.02 9.01,-1.45 12.78,-3.64l2.76 5.42c-4.69,2.67 -10.4,4.34 -15.53,4.34 -11.06,0 -18.59,-7.1 -18.61,-18.38 -0.01,-10.15 7.89,-18.36 17.65,-18.36 9.76,0 17.64,8.21 17.64,18.35 0,1.21 -0.13,2.39 -0.37,3.52l-28.09 0c1.25,5.63 5.61,8.75 11.77,8.75z"/>
   <path class="fil1" d="M82.77 85.78c0.12,0 0.24,0.01 0.36,0.01 0.28,1.76 0.57,3.52 0.86,5.32 3.99,-2.89 3.54,-9.11 -0.9,-12.26 -2.36,2.06 -4.36,4.3 -3.93,7.78 0.25,2.09 1.21,3.78 3.05,5.14 0.2,-2.16 0.38,-4.07 0.56,-5.99zm5.49 17.34c0.67,-0.08 1.28,-0.15 1.89,-0.22 6.77,-0.83 10.93,-6.14 10.1,-12.87 -0.28,-2.24 -0.42,-2.4 -2.56,-2.37 -0.97,0.01 -1.96,0.09 -2.89,0.32 -6.3,1.59 -9.64,7.55 -7.95,14.42 1.76,-2.26 3.54,-4.46 5.85,-6.12l0.34 0.29c-1.58,2.16 -3.16,4.32 -4.78,6.55zm-43.24 -23.59c0,2.24 -0.09,4.48 0.01,6.72 0.29,6.27 1.51,12.31 5.43,17.4 4.8,6.22 10.99,9.88 19.12,9.37 3.21,-0.2 5.98,-1.54 8.37,-3.92 -2.05,-1.97 -4.39,-3.38 -6.89,-4.53 -2.82,-1.3 -5.68,-2.51 -8.5,-3.82 -5.33,-2.49 -9.62,-6.02 -11.51,-11.86 -0.05,-0.16 -0.08,-0.33 -0.14,-0.55 1.31,1.5 2.47,3.03 3.83,4.37 3.27,3.22 7.4,4.97 11.64,6.49 2.93,1.04 5.86,2.06 8.74,3.22 6.75,2.72 9.15,7.53 8.91,14.7 -0.08,2.16 -1.09,6.99 -1.56,6.99 -13.95,0 -27.9,0 -41.85,0 -4.99,0 -7.74,-2.77 -7.74,-7.78 0,-16.04 0,-32.08 0,-48.12 0,-4.93 2.77,-7.71 7.66,-7.71 19.99,0 39.99,0 59.98,0 4.79,0 7.6,2.82 7.6,7.65 0,16.08 0,32.16 0,48.25 0,4.91 -2.71,7.59 -7.67,7.75 -0.6,0.02 -1.37,0.4 -1.73,0.87 -3.92,5.1 -7.77,10.26 -11.64,15.4 -0.18,0.24 -0.4,0.45 -0.79,0.88 -0.04,-0.66 -0.08,-1.08 -0.08,-1.5 0.03,-5.95 0.15,-11.91 0.06,-17.86 -0.05,-3.14 -0.29,-6.3 -0.75,-9.41 -0.45,-3.02 -1.83,-5.72 -3.87,-8.05 -0.23,-0.27 -0.51,-0.7 -0.46,-0.99 1.69,-9.22 -4.46,-15.82 -13.5,-17.38 -3.8,-0.65 -7.64,-1.07 -11.46,-1.65 -1.66,-0.25 -3.32,-0.55 -4.95,-0.97 -2.41,-0.62 -4.52,-1.78 -5.84,-4.06 -0.15,0.04 -0.28,0.07 -0.42,0.1z"/>
  </g>
  <rect class="fil2" width="608.9" height="201.8"/>
 </g>
</svg>
