<?xml version="1.0" encoding="UTF-8"?>
<!DOCTYPE svg PUBLIC "-//W3C//DTD SVG 1.1//EN" "http://www.w3.org/Graphics/SVG/1.1/DTD/svg11.dtd">
<!-- Creator: CorelDRAW 2017 -->
<svg xmlns="http://www.w3.org/2000/svg" xml:space="preserve" width="600px" height="162px" version="1.1" style="shape-rendering:geometricPrecision; text-rendering:geometricPrecision; image-rendering:optimizeQuality; fill-rule:evenodd; clip-rule:evenodd"
viewBox="0 0 231.78 62.78"
 xmlns:xlink="http://www.w3.org/1999/xlink">
 <defs>
  <style type="text/css">
   <![CDATA[
    .fil0 {fill:#293737;fill-rule:nonzero}
    .fil1 {fill:url(#id0);fill-rule:nonzero}
    .fil2 {fill:url(#id1);fill-rule:nonzero}
   ]]>
  </style>
  <linearGradient id="id0" gradientUnits="userSpaceOnUse" x1="198.59" y1="24.72" x2="200.59" y2="13.84">
   <stop offset="0" style="stop-opacity:1; stop-color:#59BC21"/>
   <stop offset="1" style="stop-opacity:1; stop-color:#79DE44"/>
  </linearGradient>
  <linearGradient id="id1" gradientUnits="userSpaceOnUse" x1="208" y1="32.98" x2="222.98" y2="-16.27">
   <stop offset="0" style="stop-opacity:1; stop-color:#009933"/>
   <stop offset="1" style="stop-opacity:1; stop-color:#33CC66"/>
  </linearGradient>
 </defs>
 <g id="Layer_x0020_1">
  <metadata id="CorelCorpID_0Corel-Layer"/>
  <g id="_1429116387760">
   <path class="fil0" d="M26.91 61.12c6.02,0 5.59,-8.05 0,-8.05l-18.74 0 0 -9.21 15.48 0c5.47,0 5.47,-8.05 0,-8.05l-15.48 0 0 -9.22 17.69 0c5.53,0 5.66,-7.98 0,-7.98l-22.05 0c-2.15,0 -3.81,1.59 -3.81,3.81l0 34.89c0,2.15 1.66,3.81 3.81,3.81l23.1 0z"/>
   <path class="fil0" d="M53.71 47.05c2.03,2.7 4.8,2.7 7.01,0l10.2 -12.9 0 22.73c0,2.7 1.72,4.24 3.93,4.24 1.96,0 3.68,-1.54 3.68,-4.24l0 -34.59c0,-4.23 -4.97,-5.22 -7,-2.7l-14.01 18.92 -13.51 -18.24c-1.05,-1.17 -2.09,-2.21 -3.87,-2.21 -0.98,0 -3.69,1.04 -3.69,4.23l0 34.59c0,2.7 1.72,4.24 3.69,4.24 2.21,0 4.42,-1.54 4.42,-4.24l0 -22.73 9.15 12.9z"/>
   <path class="fil0" d="M110.03 26.59c2.71,0 4.3,-2.21 4.3,-4.17 0,-2.22 -1.59,-3.81 -4.3,-3.81l-21.56 0c-2.7,0 -4.36,1.59 -4.36,3.81l0 34.89c0,2.15 1.66,3.81 4.36,3.81 2.15,0 3.69,-1.66 3.69,-3.81l0 -12.9 15.66 0c2.21,0 4.42,-1.66 4.42,-3.69 0,-2.15 -2.21,-4.36 -4.42,-4.36l-15.66 0 0 -9.77 17.87 0z"/>
   <path class="fil0" d="M118.99 59.03l2.64 -5.41 22.67 0 2.7 5.41c2.21,4.79 9.64,0.98 7.13,-3.81l-17.33 -34.46c-1.53,-3.38 -5.96,-3.26 -7.61,0l-17.64 34.46c-1.23,2.58 0,4.79 1.97,5.9 2.21,0.43 4.48,0 5.47,-2.09zm6.45 -13.52l7.55 -15.17 6.95 15.17 -14.5 0z"/>
   <path class="fil0" d="M165.02 57.31c0,5.47 8.11,5.34 8.11,0l0 -31.02 10.2 0c5.47,0 5.47,-7.87 0,-7.87l-29.06 0c-5.34,0 -5.34,7.87 0,7.87l10.75 0 0 31.02z"/>
   <path class="fil0" d="M193.24 24.44c-2.88,3.16 -4.84,7.09 -5.78,11.13 -2.01,11.19 3.22,24.11 18.1,26.78 14.81,2.66 24.33,-7.62 25.86,-18.89 0.9,-5.07 0.12,-10.55 -2.51,-15.18l-6.37 5.02c1.48,2.95 1.88,6.36 1.32,9.49 -1.22,6.77 -7.38,13.28 -16.87,11.58 -9.55,-1.72 -13.01,-9.95 -11.79,-16.72 0.41,-2.3 1.35,-4.55 2.77,-6.48l-4.73 -6.73z"/>
   <path class="fil1" d="M199.36 24.74c2.62,0.48 4.94,-2.1 3.05,-3.28 -1.25,-0.78 -2.73,-1.23 -4.3,-1.23 1.65,-0.37 3.3,-0.21 4.77,0.36 0.36,0.14 0.71,-0.2 0.59,-0.57 -0.81,-2.52 -3.78,-3.46 -6.53,-1.22 -1.45,1.17 -1.99,1.42 -2.01,1.43 0.96,0.95 2.05,4.16 4.43,4.51z"/>
   <path class="fil2" d="M205.5 14.27c0.16,-4.2 2.26,-7.38 6.16,-9.15 -1.75,2.27 -2.9,4.82 -3.49,7.44 -0.93,4.1 -1.89,6.78 -2.25,19.83 -0.03,1.32 1.04,2.41 2.36,2.4 0.96,-0.01 1.78,-0.62 2.15,-1.51 0.56,-1.34 1.47,-2.73 2.96,-4.01 1.41,1.56 3.55,2.39 5.77,1.99 4.09,-0.61 5.99,-6.14 7.63,-7.78 -0.03,-0.01 -0.96,-0.44 -3.46,-2.47 -8.19,-6.65 -13.41,3.84 -10.16,2.8 2.3,-0.74 4.82,-0.9 7.35,-0.33 -4.28,0 -8.23,1.96 -10.86,5.16 0.21,-5.02 0.54,-8.16 0.92,-10.5 2.19,-0.08 5.1,-1.85 6.7,-4.94 2.76,-4.94 1.48,-10 1.07,-13.2l0 0c-2.16,2.1 -11.58,-0.36 -15.32,6.04 -1.65,2.83 -1.17,6.27 0.57,8.79 0.55,0.79 1.86,0.41 1.9,-0.56z"/>
  </g>
 </g>
</svg>
