<?xml version="1.0" encoding="UTF-8"?>
<!DOCTYPE svg PUBLIC "-//W3C//DTD SVG 1.1//EN" "http://www.w3.org/Graphics/SVG/1.1/DTD/svg11.dtd">
<!-- Creator: CorelDRAW 2017 -->
<svg xmlns="http://www.w3.org/2000/svg" xml:space="preserve" width="601px" height="272px" version="1.1" style="shape-rendering:geometricPrecision; text-rendering:geometricPrecision; image-rendering:optimizeQuality; fill-rule:evenodd; clip-rule:evenodd"
viewBox="0 0 531.5 240.86"
 xmlns:xlink="http://www.w3.org/1999/xlink">
 <defs>
  <style type="text/css">
   <![CDATA[
    .fil0 {fill:white;fill-rule:nonzero}
    .fil2 {fill:url(#id0);fill-rule:nonzero}
    .fil1 {fill:url(#id1);fill-rule:nonzero}
   ]]>
  </style>
  <linearGradient id="id0" gradientUnits="userSpaceOnUse" x1="476.98" y1="75.62" x2="511.32" y2="-37.32">
   <stop offset="0" style="stop-opacity:1; stop-color:#009933"/>
   <stop offset="1" style="stop-opacity:1; stop-color:#33CC66"/>
  </linearGradient>
  <linearGradient id="id1" gradientUnits="userSpaceOnUse" x1="455.4" y1="56.68" x2="459.98" y2="31.74">
   <stop offset="0" style="stop-opacity:1; stop-color:#59BC21"/>
   <stop offset="1" style="stop-opacity:1; stop-color:#79DE44"/>
  </linearGradient>
 </defs>
 <g id="Layer_x0020_1">
  <metadata id="CorelCorpID_0Corel-Layer"/>
  <path class="fil0" d="M61.7 140.15c13.81,0 12.82,-18.45 0,-18.45l-42.96 0 0 -21.13 35.5 0c12.53,0 12.53,-18.46 0,-18.46l-35.5 0 0 -21.13 40.57 0c12.68,0 12.96,-18.31 0,-18.31l-50.57 0c-4.94,0 -8.74,3.66 -8.74,8.73l0 80.02c0,4.93 3.8,8.73 8.74,8.73l52.96 0z"/>
  <path class="fil0" d="M123.18 107.89c4.64,6.2 10.98,6.2 16.06,0l23.38 -29.58 0 52.12c0,6.2 3.95,9.72 9.02,9.72 4.5,0 8.45,-3.52 8.45,-9.72l0 -79.31c0,-9.72 -11.41,-11.97 -16.06,-6.2l-32.12 43.39 -30.99 -41.84c-2.4,-2.68 -4.79,-5.07 -8.88,-5.07 -2.25,0 -8.45,2.39 -8.45,9.72l0 79.31c0,6.2 3.95,9.72 8.45,9.72 5.08,0 10.15,-3.52 10.15,-9.72l0 -52.12 20.99 29.58z"/>
  <path class="fil0" d="M252.33 60.98c6.19,0 9.86,-5.07 9.86,-9.58 0,-5.07 -3.67,-8.73 -9.86,-8.73l-49.45 0c-6.2,0 -10,3.66 -10,8.73l0 80.02c0,4.93 3.8,8.73 10,8.73 4.93,0 8.45,-3.8 8.45,-8.73l0 -29.59 35.92 0c5.08,0 10.14,-3.8 10.14,-8.45 0,-4.93 -5.06,-10 -10.14,-10l-35.92 0 0 -22.4 41 0z"/>
  <path class="fil0" d="M272.85 135.36l6.06 -12.4 51.98 0 6.2 12.4c5.07,10.99 22.12,2.26 16.35,-8.73l-39.73 -79.03c-3.52,-7.75 -13.66,-7.47 -17.47,0l-40.43 79.03c-2.82,5.92 0,10.99 4.51,13.52 5.07,0.99 10.28,0 12.53,-4.79zm14.8 -30.99l17.32 -34.8 15.92 34.8 -33.24 0z"/>
  <path class="fil0" d="M378.42 131.42c0,12.54 18.6,12.25 18.6,0l0 -71.14 23.38 0c12.54,0 12.54,-18.03 0,-18.03l-66.63 0c-12.25,0 -12.25,18.03 0,18.03l24.65 0 0 71.14z"/>
  <path class="fil0" d="M443.12 56.04c-6.59,7.25 -11.09,16.26 -13.25,25.53 -4.61,25.65 7.39,55.29 41.5,61.41 33.97,6.1 55.81,-17.47 59.3,-43.32 2.08,-11.62 0.3,-24.2 -5.74,-34.8l-14.62 11.5c3.4,6.77 4.32,14.59 3.03,21.77 -2.79,15.53 -16.91,30.46 -38.69,26.55 -21.9,-3.93 -29.82,-22.82 -27.03,-38.35 0.95,-5.26 3.1,-10.43 6.36,-14.85l-10.86 -15.44z"/>
  <path class="fil1" d="M457.16 56.74c6.02,1.09 11.34,-4.83 6.99,-7.54 -2.87,-1.78 -6.24,-2.81 -9.86,-2.81 3.79,-0.85 7.58,-0.49 10.95,0.83 0.82,0.33 1.63,-0.47 1.36,-1.31 -1.88,-5.78 -8.67,-7.94 -14.99,-2.81 -3.32,2.7 -4.57,3.28 -4.6,3.29 2.19,2.19 4.69,9.54 10.15,10.35z"/>
  <path class="fil2" d="M471.24 32.73c0.38,-9.65 5.18,-16.94 14.14,-20.98 -4.02,5.21 -6.66,11.04 -8.02,17.06 -2.12,9.39 -4.34,15.54 -5.15,45.46 -0.08,3.03 2.38,5.54 5.41,5.5 2.2,-0.03 4.08,-1.42 4.93,-3.45 1.28,-3.08 3.37,-6.27 6.77,-9.2 3.24,3.58 8.16,5.48 13.25,4.55 9.37,-1.39 13.74,-14.07 17.49,-17.82 -0.06,-0.03 -2.21,-1.02 -7.93,-5.67 -18.78,-15.25 -30.75,8.81 -23.31,6.42 5.29,-1.69 11.07,-2.06 16.87,-0.75 -9.83,0 -18.88,4.5 -24.92,11.82 0.5,-11.51 1.25,-18.72 2.12,-24.08 5.01,-0.17 11.7,-4.22 15.37,-11.32 6.33,-11.32 3.4,-22.94 2.46,-30.27l-0.01 0c-4.96,4.81 -26.56,-0.83 -35.12,13.85 -3.79,6.48 -2.69,14.37 1.29,20.15 1.26,1.83 4.28,0.95 4.36,-1.27z"/>
  <path class="fil0" d="M146.59 217.95l0 -20.24c0,-2.95 -3.23,-5.61 -6.75,-5.61l-19.01 0c-7.6,0 -8.45,11.6 0,11.6l14.26 0 0 11.69c-3.52,2.56 -8.46,4.27 -14.26,4.27 -12.45,0 -21.76,-8.55 -21.76,-22.62 0,-13.4 11.12,-22.62 22.62,-22.62 4.94,0 9.88,2.57 13.4,5.99 5.7,5.04 14.07,-3.42 8.27,-9.12 -5.89,-5.8 -14.16,-8.37 -21.67,-8.37 -20.05,0 -34.98,14.93 -34.98,34.12 0,22.62 14.17,34.03 34.12,34.03 8.37,0 16.64,-2.38 23.38,-7.98 1.62,-1.81 2.38,-3.43 2.38,-5.14z"/>
  <path id="1" class="fil0" d="M177.68 207.02l14.92 0 14.35 20.53c5.71,7.22 15.59,0.19 10.65,-7.13l-12.64 -15.39c20.15,-8.08 15.21,-40.39 -8.94,-40.39l-25.28 0c-3.13,0 -5.7,2.47 -5.7,5.79l0 53.99c0,8.36 12.64,8.07 12.64,-0.19l0 -17.21zm0 -30.88l18.34 0c13.12,0 12.36,19.95 0,19.95l-18.34 0 0 -19.95z"/>
  <path id="2" class="fil0" d="M301.44 197.14c0,-22.53 -17.39,-34.03 -34.02,-34.88 -17.59,0 -35.83,11.5 -35.83,34.88 0,23.28 18.24,34.97 35.83,34.21 16.63,0 34.02,-11.69 34.02,-34.21zm-12.45 0c0,14.92 -11.69,22.52 -22.62,22.52 -10.64,0 -22.24,-7.6 -22.24,-22.52 0,-15.02 11.6,-22.53 22.24,-22.53 10.93,0 22.62,7.51 22.62,22.53z"/>
  <path id="3" class="fil0" d="M362.47 205.31c0,19.87 -32.41,18.73 -32.41,0l0 -34.4c0,-8.94 -12.45,-8.56 -12.45,0l0 34.4c0,35.55 57.31,35.55 57.31,0l0 -34.4c0,-9.13 -12.45,-8.46 -12.45,0l0 34.4z"/>
  <path id="4" class="fil0" d="M392.9 223.85c0,4.18 3.32,6.55 6.46,6.55 3.42,0 6.08,-2.37 6.08,-6.55l0 -12.55 15.88 0c12.35,0 23.47,-8.36 23.47,-23.38 0,-15.87 -11.12,-24.14 -23.47,-24.14l-21.96 0c-3.99,0 -6.46,3.42 -6.46,6.56l0 53.51zm28.42 -48.1c6.36,0 11.4,5.52 11.4,12.17 0,5.89 -5.04,11.5 -11.4,11.5l-15.88 0 0 -23.67 15.88 0z"/>
 </g>
</svg>
