<?xml version="1.0" encoding="UTF-8"?>
<!DOCTYPE svg PUBLIC "-//W3C//DTD SVG 1.1//EN" "http://www.w3.org/Graphics/SVG/1.1/DTD/svg11.dtd">
<!-- Creator: CorelDRAW 2017 -->
<svg xmlns="http://www.w3.org/2000/svg" xml:space="preserve" width="2.11667E+06px" height="571500px" version="1.1" style="shape-rendering:geometricPrecision; text-rendering:geometricPrecision; image-rendering:optimizeQuality; fill-rule:evenodd; clip-rule:evenodd"
viewBox="0 0 2519518.29 682390.76"
 xmlns:xlink="http://www.w3.org/1999/xlink">
 <defs>
  <style type="text/css">
   <![CDATA[
    .fil0 {fill:white;fill-rule:nonzero}
    .fil1 {fill:url(#id0);fill-rule:nonzero}
    .fil2 {fill:url(#id1);fill-rule:nonzero}
   ]]>
  </style>
  <linearGradient id="id0" gradientUnits="userSpaceOnUse" x1="2158762.74" y1="268668.28" x2="2180470.94" y2="150476.22">
   <stop offset="0" style="stop-opacity:1; stop-color:#59BC21"/>
   <stop offset="1" style="stop-opacity:1; stop-color:#79DE44"/>
  </linearGradient>
  <linearGradient id="id1" gradientUnits="userSpaceOnUse" x1="2261057.35" y1="358483.52" x2="2423845.38" y2="-176896.02">
   <stop offset="0" style="stop-opacity:1; stop-color:#009933"/>
   <stop offset="1" style="stop-opacity:1; stop-color:#33CC66"/>
  </linearGradient>
 </defs>
 <g id="Layer_x0020_1">
  <metadata id="CorelCorpID_0Corel-Layer"/>
  <path class="fil0" d="M292494.35 664375.43c65432.9,0 60761.51,-87489.6 0,-87489.6l-203684.43 0 0 -100163.33 168283.78 0c59441.19,0 59441.19,-87476.2 0,-87476.2l-168283.78 0 0 -100163.33 192324.32 0c60104.7,0 61445.13,-86812.69 0,-86812.69l-239728.48 0c-23377.03,0 -41405.76,17351.81 -41405.76,41392.35l0 379300.34c0,23383.73 18028.73,41412.46 41405.76,41412.46l251088.59 0z"/>
  <path class="fil0" d="M583896.26 511452.94c22036.6,29375.43 52088.95,29375.43 76129.49,0l110846.53 -140235.37 0 247080.72c0,29388.84 18712.34,46077.14 42752.88,46077.14 21352.99,0 40065.34,-16688.3 40065.34,-46077.14l0 -375955.98c0,-46077.14 -54092.89,-56773.74 -76129.5,-29388.83l-152258.98 205668.26 -146903.99 -198316.03c-11360.11,-12700.53 -22720.22,-24040.54 -42075.97,-24040.54 -10689.9,0 -40065.33,11340.01 -40065.33,46077.14l0 375955.98c0,29388.84 18692.24,46077.14 40065.33,46077.14 24040.54,0 48081.08,-16688.3 48081.08,-46077.14l0 -247080.72 99493.12 140235.37z"/>
  <path class="fil0" d="M1196109.02 289082.97c29368.73,0 46740.65,-24040.54 46740.65,-45420.34 0,-24040.54 -17371.92,-41392.35 -46740.65,-41392.35l-234393.59 0c-29388.84,0 -47417.57,17351.81 -47417.57,41392.35l0 379300.34c0,23383.73 18028.73,41412.46 47417.57,41412.46 23363.62,0 40065.33,-18028.73 40065.33,-41412.46l0 -140235.36 170287.72 0c24040.54,0 48067.67,-18028.73 48067.67,-40065.33 0,-23363.63 -24027.13,-47404.17 -48067.67,-47404.17l-170287.72 0 0 -106175.14 194328.26 0z"/>
  <path class="fil0" d="M1293423.94 641675.32l28725.33 -58777.68 246397.1 0 29388.84 58777.68c24040.54,52088.95 104834.72,10676.49 77469.92,-41412.46l-188316.44 -374628.96c-16688.31,-36720.96 -64769.39,-35380.54 -82804.82,0l-191660.81 374628.96c-13357.34,28048.41 0,52088.95 21373.1,64112.57 24040.54,4664.69 48744.59,0 59427.78,-22700.11zm70117.68 -146924.09l82134.61 -164939.42 75465.98 164939.42 -157600.59 0z"/>
  <path class="fil0" d="M1793858.58 622962.97c0,59441.19 88146.41,58100.77 88146.41,0l0 -337224.36 110846.52 0c59441.19,0 59441.19,-85472.27 0,-85472.27l-315851.27 0c-58100.76,0 -58100.76,85472.27 0,85472.27l116858.34 0 0 337224.36z"/>
  <path class="fil0" d="M2100561.44 265652.32c-31265.43,34375.23 -52611.72,77094.6 -62845.87,121027.06 -21835.54,121603.45 35065.55,262080.09 196741.02,291100.31 161038.78,28899.59 264539.77,-82798.11 281100.74,-205333.15 9878.94,-55104.91 1407.44,-114733.76 -27190.54,-164986.33l-69300.03 54515.12c16091.82,32116.61 20461.61,69139.18 14335.86,103179.29 -13203.2,73622.9 -80164.18,144383.99 -183376.98,125866 -103842.8,-18645.32 -141374.73,-108152.27 -128151.42,-181768.46 4477.02,-24958.73 14717.87,-49455.02 30159.58,-70419.28l-51472.36 -73180.56z"/>
  <path class="fil1" d="M2167106.89 268976.58c28517.56,5167.34 53751.08,-22887.77 33101.82,-35729.06 -13578.51,-8437.98 -29569.8,-13343.94 -46707.14,-13343.94 17968.41,-4048.08 35903.31,-2312.23 51887.89,3947.56 3907.34,1534.79 7740.96,-2218.41 6447.45,-6206.17 -8893.73,-27418.42 -41104.17,-37645.87 -71049.28,-13323.84 -15750.01,12794.37 -21667.99,15515.43 -21815.44,15582.45 10381.6,10381.6 22244.37,45219.27 48134.7,49073z"/>
  <path class="fil2" d="M2233853.4 155167.71c1776.07,-45755.44 24543.2,-80318.32 66994.49,-99466.31 -19047.45,24683.95 -31553.62,52310.13 -38014.48,80874.6 -10046.49,44488.74 -20535.32,73669.81 -24389.05,215466.78 -388.72,14382.77 11259.58,26285.75 25642.35,26111.49 10415.11,-134.04 19335.65,-6742.34 23343.52,-16353.19 6092.24,-14624.05 16004.69,-29757.46 32136.71,-43624.17 15327.77,16949.69 38657.89,25964.06 62792.26,21587.56 44394.91,-6608.3 65117.89,-66733.1 82898.64,-84513.85 -254.68,-120.64 -10455.32,-4798.73 -37578.84,-26835.33 -89017.69,-72309.28 -145784.73,41720.76 -110498.02,30414.26 25059.27,-8029.15 52464.28,-9771.7 79943.01,-3578.93 -46566.4,0 -89486.84,21339.58 -118104.93,56076.72 2345.74,-54588.85 5904.57,-88756.31 10026.38,-114177.49 23785.86,-817.66 55486.94,-20025.96 72899.07,-53630.44 30005.44,-53704.17 16098.52,-108762.16 11621.49,-143519.41l-33.51 0c-23511.07,22787.24 -125892.81,-3920.75 -166487.61,65647.36 -17941.6,30742.67 -12727.34,68153.96 6145.86,95525.46 5971.59,8672.56 20260.54,4510.53 20662.66,-6005.11z"/>
 </g>
</svg>
