<?xml version="1.0" encoding="UTF-8"?>
<!DOCTYPE svg PUBLIC "-//W3C//DTD SVG 1.1//EN" "http://www.w3.org/Graphics/SVG/1.1/DTD/svg11.dtd">
<!-- Creator: CorelDRAW 2017 -->
<svg xmlns="http://www.w3.org/2000/svg" xml:space="preserve" width="601px" height="199px" version="1.1" style="shape-rendering:geometricPrecision; text-rendering:geometricPrecision; image-rendering:optimizeQuality; fill-rule:evenodd; clip-rule:evenodd"
viewBox="0 0 608.9 201.8"
 xmlns:xlink="http://www.w3.org/1999/xlink">
 <defs>
  <style type="text/css">
   <![CDATA[
    .fil3 {fill:none}
    .fil2 {fill:#1FB166;fill-rule:nonzero}
    .fil0 {fill:#66C157;fill-rule:nonzero}
    .fil1 {fill:#F6931D;fill-rule:nonzero}
   ]]>
  </style>
 </defs>
 <g id="Layer_x0020_1">
  <metadata id="CorelCorpID_0Corel-Layer"/>
  <g id="_2021631854992">
   <g id="_2165411656144">
    <g>
     <polygon class="fil0" points="173.24,80.03 173.24,92.34 189.71,92.34 189.71,98.41 173.24,98.41 173.24,108.48 166.4,108.48 166.4,73.96 192.44,73.96 192.44,80.03 "/>
     <path class="fil0" d="M220.99 81.89l0 26.59 -6.78 0 0 -1.97c-2.19,1.47 -4.87,2.35 -7.77,2.35 -8.31,0 -13.23,-6.73 -13.23,-13.78 0,-7.12 4.92,-13.79 13.23,-13.79 2.79,0 5.53,0.88 7.77,2.19l0 -1.64 6.78 0 0 0.05zm-6.78 7.93l0 0c-1.64,-1.42 -3.99,-2.29 -6.56,-2.29 -4.87,0 -7.88,3.61 -7.88,7.6 0,3.99 3.06,7.66 7.88,7.66 2.57,0 4.87,-0.82 6.56,-2.24l0 -10.67 0 -0.06z"/>
     <path class="fil0" d="M232.54 85.61c1.8,-2.51 4.59,-4.15 8.37,-4.21 0.49,0 1.14,0.11 1.64,0.27l0 7.39c0,0 -1.86,-0.38 -3.29,-0.38 -4.92,0 -6.78,3.5 -6.78,6.94l0 12.8 -6.84 0 0 -26.58 6.84 0 0 3.72 0.06 0.05z"/>
     <path class="fil0" d="M287.84 93.65l0 14.83 -6.78 0 0 -14.83c0,-4.1 -2.08,-6.12 -5.8,-6.12 -2.25,0 -3.89,0.76 -5.31,2.08 0.22,0.71 0.28,1.69 0.28,4.1l0 14.71 -6.79 0 0 -14.82c0,-4.05 -1.8,-6.13 -5.36,-6.13 -2.41,0 -4.32,0.77 -5.74,2.08l0 18.87 -6.84 0 0 -26.58 6.84 0 0 1.64c1.91,-1.37 4.32,-2.13 6.89,-2.13 4.1,0 7,1.03 8.81,3.39 2.24,-2.08 5.19,-3.39 8.31,-3.39 7.82,0 11.43,3.61 11.43,12.25l0.06 0.05z"/>
     <path class="fil0" d="M324.54 91.19l0 12.64c-3.83,3.06 -9.08,5.03 -15.04,5.03 -10.06,0 -18.32,-7.88 -18.32,-17.61 0,-9.74 8.2,-17.62 18.32,-17.62 5.8,0 10.5,1.92 13.79,4.93l-4.43 4.92c-2.3,-2.08 -5.64,-3.28 -9.41,-3.28 -6.19,0 -11.16,4.97 -11.16,11.05 0,6.4 4.97,11.43 11.16,11.43 3.06,0 5.85,-0.88 8.04,-2.35l0 -3.23 -8.76 0 0 -5.85 15.76 0 0.05 -0.06z"/>
     <path class="fil0" d="M355.94 81.89l0 26.59 -6.78 0 0 -1.97c-2.19,1.47 -4.87,2.35 -7.77,2.35 -8.31,0 -13.24,-6.73 -13.24,-13.78 0,-7.12 4.93,-13.79 13.24,-13.79 2.79,0 5.53,0.88 7.77,2.19l0 -1.64 6.78 0 0 0.05zm-6.78 7.93l0 0c-1.64,-1.42 -3.99,-2.29 -6.57,-2.29 -4.86,0 -7.87,3.61 -7.87,7.6 0,3.99 3.06,7.66 7.87,7.66 2.58,0 4.87,-0.82 6.57,-2.24l0 -10.67 0 -0.06z"/>
     <path class="fil0" d="M368.91 87.53l0 9.41c0,4.75 0.76,6.12 4.21,6.12 1.15,0 2.19,-0.16 3.12,-0.22l0 5.09c-0.28,0.11 -2.36,0.99 -6.19,0.99 -4.43,0 -8.04,-2.79 -8.04,-8.37l0 -12.97 -3.77 0 0 -5.63 3.77 0 0 -10.34 6.84 0 0 10.34 7.44 0 0 5.63 -7.44 0 0.06 -0.05z"/>
     <path class="fil0" d="M384.11 97.15c0.71,3.51 3.5,5.91 7.61,5.91 2.79,0 5.36,-1.26 6.83,-3.28l4.38 3.61c-2.46,3.34 -6.78,5.47 -11.98,5.47 -8.04,0 -13.62,-6.13 -13.62,-13.73 0,-7.66 5.58,-13.78 13.62,-13.78 8.15,0 12.91,5.9 12.91,14.22 0,0.54 -0.05,1.09 -0.05,1.53l-19.7 0 0 0.05zm0.06 -4.37l0 0 13.18 0c-0.22,-3.01 -1.86,-5.91 -6.4,-5.91 -3.55,0 -6.13,2.63 -6.78,5.91z"/>
    </g>
    <g>
     <g>
      <path class="fil0" d="M137.3 61.22c-0.44,-2.79 -1.8,-5.31 -3.66,-7.22 -1.92,-1.92 -4.43,-3.23 -7.22,-3.67 -13.13,-2.13 -26.42,-3.23 -39.72,-3.23 -13.29,0 -26.58,1.04 -39.71,3.23 -2.79,0.44 -5.31,1.81 -7.22,3.67 -1.92,1.91 -3.23,4.43 -3.67,7.22 -2.13,13.12 -3.22,26.42 -3.22,39.71 0,8.42 0.44,16.79 1.26,25.16 6.89,-3.99 14.87,-6.29 23.35,-6.29 1.75,0 3.5,0.11 5.2,0.27l0 -25.05 0 -2.24c0.05,0 0.05,0 0.11,0 1.09,-11.49 10.72,-20.46 22.48,-20.46 0.27,0 0.6,0 0.88,0l2.24 0.22c10.99,1.53 19.47,10.99 19.47,22.37l0 14.66c0.39,-0.16 0.71,-0.27 1.1,-0.38 0.32,-0.11 0.71,-0.22 1.04,-0.33 0.27,-0.11 0.54,-0.16 0.87,-0.27 0.17,-0.06 0.38,-0.11 0.55,-0.17 0.55,-0.16 1.04,-0.33 1.58,-0.44 0.28,-0.05 0.5,-0.1 0.77,-0.21 0.27,-0.06 0.55,-0.11 0.82,-0.22 0.38,-0.11 0.77,-0.17 1.15,-0.28 0.38,-0.05 0.77,-0.16 1.15,-0.21 0,0 0,0 0.05,0 0.33,-0.06 0.66,-0.11 1.04,-0.17 0.17,-0.05 0.33,-0.05 0.49,-0.05 0.61,-0.11 1.21,-0.17 1.86,-0.28 0.11,0 0.28,-0.05 0.39,-0.05 0.33,-0.06 0.65,-0.06 0.98,-0.11 0.39,-0.06 0.71,-0.06 1.1,-0.11 0.43,-0.06 0.87,-0.06 1.31,-0.06 0.38,0 0.82,-0.05 1.2,-0.05 0.39,0 0.82,0 1.21,0 4.81,0 9.46,0.66 13.83,1.81 0.06,-2.36 0.11,-4.76 0.11,-7.12 0,-13.29 -1.09,-26.58 -3.22,-39.71l0.05 0.06z"/>
     </g>
     <g>
      <path class="fil1" d="M107.87 113.78c-1.37,0.55 -2.62,1.15 -3.94,1.81 -4.81,2.46 -9.13,5.69 -12.85,9.52 -1.2,1.25 -2.35,2.57 -3.45,3.93 -0.27,0.39 -0.54,0.72 -0.82,1.1 -0.76,1.04 -1.53,2.13 -2.24,3.23 -1.75,2.79 -3.23,5.74 -4.38,8.8 -0.49,1.37 -0.98,2.74 -1.36,4.16 -0.77,2.63 -1.26,5.36 -1.59,8.21 2.35,0.1 4.76,0.16 7.11,0.16 1.42,0 2.85,0 4.27,0 0.11,0 0.16,0 0.27,0 0.6,-4.43 1.92,-8.59 3.89,-12.42 0.65,-1.26 1.36,-2.51 2.18,-3.72 2.46,-3.72 5.58,-6.94 9.19,-9.57 1.21,-0.87 2.46,-1.7 3.72,-2.41 5.53,-3.11 11.87,-4.92 18.66,-4.92 4.54,0 8.86,0.77 12.85,2.24 0.38,-3.94 0.66,-7.93 0.82,-11.92 -4.38,-1.26 -8.97,-1.92 -13.73,-1.92 -6.62,0 -12.91,1.32 -18.65,3.67l0.05 0.05z"/>
     </g>
     <g>
      <path class="fil1" d="M97.37 142.12c-0.82,1.31 -1.53,2.73 -2.13,4.16 -1.15,2.62 -1.92,5.41 -2.36,8.31 1.92,-0.05 3.83,-0.11 5.69,-0.22 1.37,-0.05 2.68,-0.16 4.05,-0.22 0.71,-0.05 1.48,-0.11 2.19,-0.16 2.52,-9.68 11.32,-16.79 21.72,-16.79 3.93,0 7.65,1.03 10.83,2.79 0.65,-4 1.2,-7.99 1.64,-12.04 -3.89,-1.53 -8.1,-2.35 -12.47,-2.35 -12.37,0 -23.2,6.62 -29.16,16.46l0 0.06z"/>
     </g>
     <g>
      <path class="fil1" d="M109.02 153.72c5.8,-0.55 11.6,-1.26 17.4,-2.19 2.79,-0.44 5.3,-1.81 7.22,-3.67 1.09,-1.09 2.02,-2.4 2.68,-3.88 -2.85,-1.75 -6.18,-2.79 -9.74,-2.79 -8.15,0 -15.04,5.25 -17.56,12.53z"/>
     </g>
     <g>
      <path class="fil1" d="M78.17 129.04c0,0 -0.05,0 -0.05,-0.05 -0.39,-0.22 -0.72,-0.38 -1.1,-0.6 -0.38,-0.22 -0.76,-0.38 -1.2,-0.6 -0.38,-0.17 -0.82,-0.39 -1.21,-0.55 0,0 0,0 0,0 -0.38,-0.16 -0.82,-0.33 -1.2,-0.49 -0.38,-0.17 -0.82,-0.33 -1.2,-0.49 -1.04,-0.39 -2.14,-0.72 -3.23,-1.04 -0.22,-0.06 -0.44,-0.11 -0.66,-0.17l0 0c-0.54,-0.16 -1.09,-0.27 -1.69,-0.38 -1.31,-0.27 -2.63,-0.49 -3.94,-0.66 -1.7,-0.22 -3.45,-0.33 -5.2,-0.33 -8.42,0 -16.24,2.47 -22.92,6.68 0.39,3.44 0.88,6.84 1.43,10.23 0,0.16 0.05,0.33 0.05,0.43 5.8,-4.86 13.24,-7.82 21.39,-7.82 7.27,0 13.95,2.35 19.42,6.29 1.2,-3.01 2.68,-5.85 4.43,-8.53 -1.04,-0.71 -2.13,-1.37 -3.23,-1.97l0.11 0.05z"/>
     </g>
     <g>
      <path class="fil1" d="M50.93 152.13c5.41,0.76 10.83,1.42 16.3,1.8 -2.68,-2.07 -6.02,-3.28 -9.63,-3.28 -2.35,0 -4.59,0.55 -6.62,1.48l-0.05 0z"/>
     </g>
     <g>
      <path class="fil1" d="M37.64 145.02c0.6,1.04 1.31,1.97 2.13,2.79 1.48,1.47 3.34,2.62 5.42,3.28 3.39,-2.74 7.71,-4.38 12.36,-4.38 6.29,0 11.92,3.01 15.59,7.61 0.05,0 0.11,0 0.22,0 0.38,-3.78 1.14,-7.44 2.24,-10.94 -4.98,-3.89 -11.27,-6.24 -18.05,-6.24 -7.66,0 -14.66,2.95 -19.91,7.82l0 0.06z"/>
     </g>
     <g>
      <path class="fil0" d="M85.34 103.01l0 0 0 0 0.16 -0.17c-0.06,-0.16 -0.11,-0.27 -0.16,-0.43 0,0 0,0 0,0 0,0 0,0 0,0 -0.06,0.11 -0.06,0.21 -0.11,0.32 0,0.06 -0.06,0.06 -0.06,0.11l0 0c0,0 0,0 0,0l0.17 0.17z"/>
     </g>
     <g>
      <path class="fil2" d="M93.92 99.45l-0.32 -0.05c-3.29,-0.5 -6.3,1.8 -6.79,5.03l-0.05 0.33 0.33 0.05c3.28,0.49 6.29,-1.8 6.78,-5.03l0.05 -0.33z"/>
     </g>
     <g>
      <path class="fil2" d="M86.81 123.9c0.28,-0.32 0.6,-0.65 0.88,-0.93 0.38,-0.38 0.76,-0.82 1.2,-1.2 0.22,-0.22 0.44,-0.44 0.66,-0.66 0.44,-0.43 0.93,-0.87 1.42,-1.31 0.22,-0.22 0.49,-0.44 0.71,-0.6 0.44,-0.38 0.88,-0.77 1.31,-1.1 0.22,-0.16 0.44,-0.38 0.71,-0.54 0.17,-0.11 0.33,-0.28 0.5,-0.39 0.22,-0.16 0.43,-0.32 0.6,-0.43 0.16,-0.17 0.38,-0.28 0.6,-0.44 0.16,-0.16 0.38,-0.27 0.6,-0.38 0.22,-0.17 0.44,-0.33 0.66,-0.5 0.22,-0.16 0.44,-0.27 0.65,-0.43 0.17,-0.11 0.33,-0.22 0.5,-0.33 0.22,-0.17 0.43,-0.28 0.65,-0.38 0.22,-0.17 0.44,-0.28 0.71,-0.44 0.22,-0.17 0.5,-0.28 0.77,-0.44 0.11,-0.05 0.27,-0.16 0.38,-0.22 0.28,-0.16 0.55,-0.33 0.88,-0.49 0.16,-0.11 0.38,-0.22 0.6,-0.33 0.27,-0.16 0.6,-0.33 0.93,-0.49 0.44,-0.22 0.82,-0.38 1.26,-0.6 0,0 0.05,0 0.05,0l0 -16.3c0,-4.49 -1.58,-8.59 -4.21,-11.82 -3.44,-4.16 -8.59,-6.84 -14.39,-6.84 -10.28,0 -18.65,8.37 -18.65,18.66l0 25.76c4.43,0.88 8.59,2.41 12.47,4.43 1.54,0.82 3.07,1.7 4.49,2.68 0.22,-0.33 0.44,-0.6 0.71,-0.93l0 -12.42 -0.49 0.06c-0.39,0.05 -0.77,0.05 -1.15,0.05 -3.88,0 -7.28,-2.84 -7.88,-6.78l-0.33 -2.3 2.3 -0.33c0.33,-0.05 0.66,-0.05 0.99,-0.05 -0.99,-0.82 -1.81,-1.81 -2.36,-3.06 -0.27,-0.6 -0.49,-1.32 -0.54,-2.03l-0.33 -2.29 2.3 -0.33c1.75,-0.28 3.5,0.05 5.03,0.93 -0.99,-2.79 -0.38,-6.07 1.86,-8.26l1.64 -1.64 1.64 1.64c2.24,2.24 2.84,5.41 1.91,8.2 0,0 0,0.06 0,0.11 1.48,-0.82 3.23,-1.2 5.04,-0.93l2.29 0.33 -0.32 2.3c-0.28,2.08 -1.37,3.83 -2.9,5.03 0.33,0 0.65,0 0.98,0.05l2.3 0.33 -0.33 2.3c-0.6,3.94 -3.99,6.78 -7.88,6.78 -0.38,0 -0.76,0 -1.14,-0.05l-0.5 -0.06 0 10.01c0.11,-0.16 0.28,-0.27 0.39,-0.43 0.05,-0.06 0.05,-0.11 0.11,-0.11l-0.28 -0.06z"/>
     </g>
     <g>
      <path class="fil2" d="M87.74 106.89c-0.33,0 -0.65,-0.05 -0.98,-0.05l-1.48 -0.22 -1.48 0.22c-0.32,0.05 -0.65,0.05 -0.93,0.05 1.1,0.88 1.92,1.97 2.41,3.28 0.49,-1.31 1.37,-2.4 2.41,-3.28l0.05 0z"/>
     </g>
     <g>
      <path class="fil2" d="M86.7 112.58l0.33 0.05c3.28,0.5 6.29,-1.8 6.78,-5.03l0.06 -0.33 -0.33 -0.05c-3.28,-0.49 -6.29,1.8 -6.78,5.03l-0.06 0.33z"/>
     </g>
     <g>
      <path class="fil2" d="M77.08 107.16l-0.33 0.06 0.05 0.33c0.49,3.28 3.5,5.52 6.79,5.03l0.32 -0.05 -0.05 -0.33c-0.22,-1.59 -1.04,-3.01 -2.35,-3.94 -1.26,-0.93 -2.85,-1.37 -4.43,-1.15l0 0.05z"/>
     </g>
     <g>
      <path class="fil0" d="M86.27 124.5c-0.11,0.11 -0.22,0.28 -0.33,0.39 0.11,-0.11 0.22,-0.28 0.33,-0.39l0 0z"/>
     </g>
     <g>
      <path class="fil2" d="M81.51 100.55c-1.26,-0.93 -2.85,-1.37 -4.43,-1.15l-0.33 0.05 0.05 0.33c0.11,0.77 0.39,1.48 0.77,2.13 1.2,2.03 3.55,3.29 6.02,2.9l0.32 -0.05 -0.05 -0.33c-0.17,-1.31 -0.77,-2.46 -1.7,-3.39 -0.22,-0.22 -0.38,-0.38 -0.6,-0.55l-0.05 0.06z"/>
     </g>
     <g>
      <path class="fil2" d="M85.34 91.25l-0.22 0.22c-2.36,2.35 -2.36,6.12 0,8.47l0.11 0.11 0.11 0.11 0.21 -0.22c0,0 0.06,-0.05 0.06,-0.05 2.24,-2.35 2.24,-6.07 -0.06,-8.37l-0.21 -0.22 0 -0.05z"/>
     </g>
    </g>
    <path class="fil1" d="M179.48 137.8l3.83 0 -8.43 -18.77 -3.83 0 -8.42 18.77 3.83 0 1.58 -3.56 9.8 0 1.58 3.56 0.06 0zm-3.01 -6.84l-6.95 0 3.5 -7.99 3.5 7.99 -0.05 0zm18.05 6.84l0 -6.95 9.41 0 0 -3.28 -9.41 0 0 -5.09 9.9 0 0 -3.39 -13.46 0 0 18.71 3.56 0zm35.17 -0.22l-5.69 -6.4c3.56,-0.71 4.76,-3.34 4.76,-5.91 0,-3.23 -2.35,-6.18 -6.73,-6.24 -2.95,0 -5.96,0 -8.91,0l0 18.77 3.55 0 0 -6.24 3.61 0 5.42 6.24 4.05 0 0 -0.22 -0.06 0zm-7.66 -15.21c2.25,0 3.23,1.48 3.23,3.01 0,1.53 -0.98,3.01 -3.23,3.01l-5.36 0 0 -6.02 5.36 0zm19.42 15.48l0 -18.76 -3.5 0 0 18.76 3.5 0zm23.36 -4.81c-1.2,1.2 -3.06,1.91 -4.7,1.91 -4.65,0 -6.4,-3.22 -6.46,-6.34 0,-3.12 1.92,-6.51 6.46,-6.51 1.64,0 3.28,0.54 4.54,1.75l2.35 -2.3c-1.92,-1.91 -4.32,-2.84 -6.89,-2.84 -6.79,0 -9.96,4.97 -9.91,9.84 0,4.87 2.96,9.68 9.91,9.68 2.68,0 5.19,-0.87 7.11,-2.79l-2.41 -2.4 0 0zm25.16 4.81l3.83 0 -8.42 -18.76 -3.83 0 -8.43 18.76 3.83 0 1.59 -3.55 9.79 0 1.59 3.55 0.05 0zm-3.01 -6.84l-6.94 0 3.5 -7.98 3.5 7.98 -0.06 0z"/>
   </g>
  </g>
  <rect class="fil3" width="608.9" height="201.8"/>
 </g>
</svg>
