<?xml version="1.0" encoding="UTF-8"?>
<!DOCTYPE svg PUBLIC "-//W3C//DTD SVG 1.1//EN" "http://www.w3.org/Graphics/SVG/1.1/DTD/svg11.dtd">
<!-- Creator: CorelDRAW 2017 -->
<svg xmlns="http://www.w3.org/2000/svg" xml:space="preserve" width="601px" height="199px" version="1.1" style="shape-rendering:geometricPrecision; text-rendering:geometricPrecision; image-rendering:optimizeQuality; fill-rule:evenodd; clip-rule:evenodd"
viewBox="0 0 608.9 201.8"
 xmlns:xlink="http://www.w3.org/1999/xlink">
 <defs>
  <style type="text/css">
   <![CDATA[
    .fil2 {fill:none}
    .fil1 {fill:#293737}
    .fil0 {fill:#ABBA16}
   ]]>
  </style>
 </defs>
 <g id="Layer_x0020_1">
  <metadata id="CorelCorpID_0Corel-Layer"/>
  <g id="_2021631847088">
   <path class="fil0" d="M299.08 53.32c-26.52,3.19 -45.47,26.35 -42.44,52.9 1.62,14.22 9.1,24.98 16.63,31.19 8.63,7.13 20.81,12.78 36.22,11.08 24.5,-2.71 45.27,-24.73 42.26,-52.83 -1.41,-13.23 -7.41,-22.95 -16.6,-31.23 -7.82,-7.05 -21.59,-12.85 -36.07,-11.11zm0.15 1.05l0 0c24.69,-3.12 48.61,15.41 51.47,41.53 3.01,27.45 -17.5,48.8 -41.4,51.53 -19.03,2.17 -36.96,-7.64 -46,-23.8 -2.83,-5.07 -4.85,-10.89 -5.61,-17.6 -2.14,-19.02 7.53,-36.95 23.84,-46.07 5.34,-2.99 10.71,-4.71 17.7,-5.59z"/>
   <path class="fil1" d="M302.43 56.47c-37,0.97 -58.52,47.81 -28.61,76.82 12.98,12.59 33.55,15.58 49.89,7.56 15.6,-7.65 25.42,-23.8 24.82,-41.81 -0.31,-9.5 -3.46,-17.31 -8.59,-24.48 -0.91,-1.28 -1.58,-1.88 -2.48,-3.02 -3.94,-4.95 -10.36,-9.08 -16.25,-11.69 -5.49,-2.42 -12.2,-3.55 -18.78,-3.38zm0.94 39.14l0 0c0.21,0.38 0.12,-0.08 0.12,0.52l-0.89 3.4c-0.32,1.39 -0.6,2.95 -0.92,4.39 -1.29,-2.06 -2.46,-6.85 -2.89,-9.68 -0.72,-4.78 -0.05,-7.22 0.17,-11.64 -0.84,1.68 -1.15,4.23 -1.43,6.4 -1.59,-1.61 -1.92,-3.01 -4.33,-4.07 2.38,1.94 3.58,4.37 3.78,8.5 0.22,4.84 0.96,6.42 1.97,10.53 -1.7,-0.99 -2.62,-2.02 -3.93,-3.51 -6.19,-7.04 -8.14,-2.33 -10.58,-11.76 -0.12,3.43 0.7,3.75 1.52,6.24 -1.99,0.04 -3.99,-0.17 -5.53,0.73 4.01,0.46 6.8,0.82 9.62,2.86 5.69,4.1 12.67,15.68 13.13,23.72 -1.82,-0.87 -3.59,-4.88 -11.65,-7.79 -2.64,-0.96 -4.83,-1.26 -7.03,-2.64 -1.31,-0.81 -3.89,-3.38 -3.86,-5.23 -0.02,2.18 2.03,4.96 3.06,5.74l-8.39 0.35c5.5,0.49 8.24,-0.02 13.21,2.02 3.36,1.38 7.42,3.81 9.36,5.83 1.24,1.29 5.14,4.56 4.47,6.64l-3.34 8.31c-1.1,2.75 -0.94,2.91 -1.26,6.16 -6.67,-0.21 -17.76,-6.04 -22.85,-11.65 -7.18,-7.91 -13.26,-18.27 -11.86,-32.39 1.04,-10.36 5.47,-20.28 12.94,-26.87 11.87,-10.46 28.93,-14.91 44.82,-7.64 5.15,2.36 8.38,4.75 11.97,7.9 0.52,0.45 0.73,0.79 1.18,1.29 25.47,28.18 5.11,66.7 -24.58,69.57 -1.24,-5.29 -0.74,-7.64 0.72,-12.69 1.58,-5.45 2.44,-5.87 5.98,-8.67 8.3,-6.56 11.97,-6.45 19.99,-9.28 -3.04,-0.12 -5.33,0.44 -8.2,0.85 1.48,-2.49 2.18,-2.85 2.49,-6.35 -0.66,6.61 -8.21,7.71 -15.14,12 -1.94,1.2 -3.48,2.47 -5.1,3.56 -3.36,-6.52 1.38,-8.59 6.13,-15.52 1.3,-1.9 3.09,-5.41 3.63,-8.27 0.8,-4.34 1.82,-5.03 4.55,-7.33 -2.2,0.67 -2.95,1.94 -4.15,3.05l-0.49 -3.38c-0.25,5.18 -0.42,10.11 -5.31,14.4 0.98,-6.52 0.69,-7.1 -1.56,-12.37 2.18,6.59 0.33,12.73 -3.87,17.75l-3.69 4.04c-0.5,-3.08 -0.83,-6.5 -0.82,-9.69 0,-1.71 0.5,-6.93 1.63,-8.51 0.24,-2.31 2.8,-6.47 3.87,-8.06l4.16 -4.95c0.79,-0.71 0.92,-0.61 1.44,-1.46 -1.01,0.57 -3.23,2.33 -3.8,2.95 0.01,-1.31 0.23,-2.19 0.02,-3.64 -0.17,-1.17 -0.78,-2.11 -0.85,-2.96 0.3,2.06 0.82,3.11 0.11,5.61 -1.3,4.54 -6.84,9.06 -7.01,12.06l0.01 -4.7c-2.01,0.71 -3.94,2.97 -2.93,5.68 0.49,-0.6 0.72,-1.69 1.05,-2.49l-0.43 2.73c1.03,-0.13 0.88,0 1.57,-0.59z"/>
   <path class="fil0" d="M318.83 82.16c2.06,-0.88 4.27,-3.04 8.04,-3.3 -2.65,1.12 -5.89,2.14 -7.43,4.09 4.35,4.45 8.44,-1.69 9.98,-2.97 1.21,-0.99 2.19,-1.19 3.27,-1.98 -2.67,-0.94 -5.5,-1.96 -8.74,-1.3 -2.92,0.59 -5.36,2.18 -5.12,5.46z"/>
   <path class="fil0" d="M321 119.08c4.81,-0.53 5.38,0.06 9.36,0.77 -3.92,-0.1 -4.79,-0.84 -9.22,0.19 3.33,6.66 7.41,1.16 13.69,1.52 -3.9,-5.61 -12.86,-7.39 -13.83,-2.48z"/>
   <path class="fil0" d="M277.13 81.82l0.4 0.22c0.05,0.02 0.15,0.07 0.21,0.1l1.1 0.28c0.64,0.15 1.1,0.31 1.64,0.54 2.92,1.26 6,4.68 8.73,-0.49 -1.57,-1.03 -5.17,-1.59 -7.24,-1.56 3.32,-0.17 4.34,0.02 7.3,0.6 -0.79,-2.29 -3,-3.1 -6.01,-2.72 -3.1,0.39 -4.33,2.07 -6.13,3.03z"/>
   <path class="fil0" d="M331.62 108.6c1.63,-1.46 1.87,-2.65 4.1,-3.89 -0.89,1.45 -2.83,2.56 -3.37,4.74 5.75,1.94 4.49,-1.68 9,-7.84 -4.94,-0.42 -10.73,2.07 -9.73,6.99z"/>
   <path class="fil0" d="M309.08 75.07c0.11,-1.38 -1.76,-4.13 -2.35,-5.07 1.72,1.43 1.95,2.52 2.79,3.78l0.57 0.71c0.75,-2.95 -0.36,-4.32 -2,-5.9 -1.36,-1.29 -3.55,-2.47 -5.98,-2.43 3.1,4.86 0.91,10.13 6.97,8.91z"/>
   <path class="fil0" d="M321.54 100.08c1.89,1.77 1.18,0.18 5.18,4.51 -0.41,-1.06 -4.1,-3.2 -5.87,-3.89 -1.76,5.03 3.44,5.19 5.53,5.94 1.23,0.44 1.85,1.05 2.79,1.44 -0.36,-8.21 -7.47,-9.44 -7.63,-8z"/>
   <path class="fil0" d="M302.8 88.66c0.36,-1.75 0.14,-3.26 0.03,-5.01l0.2 0.43c0.35,0.94 0.53,1.76 0.57,4.32 3.29,-1.92 1.02,-8.29 -3.23,-10.49 0.53,4.73 -3.07,9.6 2.43,10.75z"/>
   <path class="fil0" d="M272.22 89.86c2.77,1.3 2.9,1.5 4.82,3.16 2.03,1.75 4.5,1.24 5.49,-1.03 -1.25,-0.46 -3.49,-1.49 -4.87,-2.08 2.1,0.08 3.28,0.76 5.06,1.46 -0.64,-3.5 -4.9,-3.84 -7.82,-2.96l-2.68 1.45z"/>
   <path class="fil0" d="M269.79 104.86c1.87,1.76 2.09,1.58 3.75,4.09 1.22,1.85 3.2,2.76 5.34,0.8 -0.56,-1.23 -3.09,-2.99 -4.33,-3.5 2.32,0.46 3.39,2.06 4.88,2.74 -0.16,-4.5 -5.46,-5.25 -9.64,-4.13z"/>
   <path class="fil0" d="M292.15 128.94c1.9,-5.09 6.12,-3.14 5.49,-8.04 -1.83,0.49 -3.66,2.27 -4.36,3.67 0.89,-2.38 2.96,-3.43 3.71,-4.35 -4.7,-4.3 -7.06,5.62 -4.84,8.72z"/>
   <path class="fil0" d="M295.43 115.27c0.55,-1.97 0.56,-2.53 0.57,-4.77 0.53,1.44 0.28,3.23 0.05,4.87 3.29,-0.35 3.63,-2.64 2.25,-5.49 -1,-2.05 -2.87,-3.33 -4.48,-4.44 0.08,2.16 0.71,2.77 0.12,5.35 -0.53,2.34 -0.56,3.7 1.49,4.48z"/>
   <path class="fil0" d="M294.28 98.21c0.11,-2.61 -0.38,-4.35 -0.38,-6.24 0,0.02 0.91,4.77 1.03,6.08 2.78,-1.74 1.21,-7.5 -3.01,-9.74 0.46,4.35 -2.86,9.22 2.36,9.9z"/>
   <path class="fil0" d="M326.65 91.26l5.45 -0.29c-1.82,0.27 -3.97,0.16 -5.39,1.1 1.53,4.69 5.41,0.34 9.12,0.06 -0.46,-0.85 -0.08,-0.37 -0.84,-1.02 -0.15,-0.12 -0.69,-0.5 -0.98,-0.67 -2.5,-1.49 -6.33,-1.9 -7.36,0.82z"/>
   <path class="fil0" d="M296.41 82.83c0.06,-1.23 -0.72,-2.07 -1.07,-3.26l0.93 1.14c0.33,0.56 0.49,0.99 0.67,1.51 0,0 0.5,-0.14 0.61,-1.23 0.25,-2.42 -2.92,-5.16 -6.41,-5.62 0.79,2.12 0.92,2.68 1.5,5.07 0.48,1.99 1.45,2.72 3.77,2.39z"/>
   <path class="fil0" d="M279.28 122.33c1.12,-1.43 1.25,-2.11 2.7,-3.08 1.5,-1 2.65,-1.14 2.26,-3.63 -1.06,-0.08 -1.57,0.57 -2.45,1.09 0.62,-1.05 1.18,-1.24 1.89,-1.88 -4.09,-3.42 -5.67,3.58 -4.4,7.5z"/>
   <path class="fil0" d="M280.13 103.86c1.6,-0.77 1.82,-1.4 3.96,-1.81 1.99,-0.39 3.06,-0.49 3.03,-2.75 -1.91,0.13 -2.33,0.53 -3.78,1.02 1.49,-1.07 1.82,-0.87 3.5,-1.62 -0.94,-3.33 -5.87,-1.78 -6.71,5.16z"/>
   <path class="fil0" d="M312.95 116.47l2.26 -3.87c-0.53,1.5 -1.18,2.35 -1.47,4.33 4.27,-0.05 2.88,-2.28 4.54,-7.76 -2.98,0.65 -6.56,3.61 -5.33,7.3z"/>
   <path class="fil0" d="M307.27 106.93c0.2,-0.35 1.42,-3.78 1.53,-4.22l-1 4.5c4.34,0.46 2.74,-4.36 3.39,-7.91 -2.08,0.65 -6.75,5.27 -3.92,7.63z"/>
   <path class="fil0" d="M315.25 123.01c0.05,0.04 0.15,0.02 0.18,0.1l0.56 0.29c1.06,0.46 1.49,0.42 2.6,1.24 -1.42,-0.41 -2.1,-0.8 -3.85,-0.92 0.22,4.36 3.53,2.88 7.52,3.8 -0.42,-1.77 -1.4,-3 -2.42,-3.85 -0.99,-0.82 -3.33,-2.1 -4.59,-0.66z"/>
   <path class="fil0" d="M271.02 98.23c1.99,-0.2 2.58,-0.28 4.42,0.28 1.7,0.52 2.84,0.47 3.35,-0.92 -1.23,-0.83 -2.2,-0.67 -3.56,-0.99l3.84 0.3c-0.13,-5.05 -6.64,-1.59 -8.05,1.33z"/>
   <path class="fil0" d="M302.86 77.26c0.48,-0.93 -0.41,-1.85 -1.12,-3.08 0.68,0.68 1.29,1.8 1.94,2.4 0.85,-1.45 -0.54,-3.1 -1.26,-3.7 -1.04,-0.88 -2.37,-1.28 -4.02,-1.47 1.76,4.17 1.64,6.51 4.46,5.85z"/>
   <path class="fil0" d="M326 85.78c1.3,-0.34 1.92,-0.77 3.4,-0.82 -1.1,0.34 -2.55,0.67 -3.29,1.57 0.83,1.17 2.19,1.8 3.8,0.56 1.72,-1.33 1.49,-1.1 3.48,-2.12 -1.96,-1.45 -6.55,-2.5 -7.39,0.81z"/>
   <path class="fil0" d="M289.31 122.96c0.21,-1.4 0.31,-2.33 0.92,-3.47 1.77,-3.3 0.2,-4.31 -0.8,-2.17 -0.36,0.76 -0.36,0.99 -0.57,1.79 0.01,-1.6 0.45,-1.92 0.86,-3.27 -4.35,0.12 -3.04,4.78 -0.41,7.12z"/>
   <path class="fil0" d="M306.16 95.43l2.56 -0.1 -2.36 1.04c1.16,2.9 3.19,0.98 6.07,-0.52l0.76 -0.52c-1.14,-0.4 -3.16,-1.95 -5.56,-0.97l-0.86 0.53c-0.04,0.04 -0.1,0.1 -0.15,0.13 -0.04,0.04 -0.11,0.1 -0.15,0.14 -0.04,0.03 -0.12,0.1 -0.16,0.13 -0.03,0.03 -0.1,0.1 -0.15,0.14z"/>
   <path class="fil0" d="M322.39 97.02c1.13,-0.3 2,-0.63 3.26,-0.7 -1.21,0.15 -2.3,0.48 -3.11,1.27 1.46,2.62 3.6,0.12 4.64,-0.52 0.55,-0.34 1.01,-0.46 1.53,-0.77 -1.87,-1.07 -5.45,-2.19 -6.32,0.72z"/>
   <path class="fil0" d="M303.37 95.61c0.61,-0.86 0.08,-0.21 0.73,-0.63l0.01 -4.7c-2.01,0.71 -3.94,2.97 -2.93,5.68 0.49,-0.6 0.72,-1.69 1.05,-2.49l-0.43 2.73c1.03,-0.13 0.88,0 1.57,-0.59z"/>
   <path class="fil0" d="M318.55 87.61l-0.79 -2.53c0.27,0.24 0.17,0.11 0.45,0.45l0.69 1.24c0.42,0.65 0.05,0.23 0.54,0.59 2.02,-2.66 -1.35,-4.41 -4.55,-4.53 0.37,0.72 0.07,0.16 0.38,0.63 2.26,3.44 0.96,4.08 3.28,4.15z"/>
   <path class="fil0" d="M316.4 78.01l0.38 -0.11c1.82,-0.65 1.41,-3.93 -0.68,-5.65 -1.29,3.03 -1.94,4.99 0.3,5.76z"/>
   <path class="fil0" d="M289.59 107.11c0.87,-0.96 0.47,-1.31 1.93,-2.91 0.35,-0.39 0.89,-0.81 0.73,-1.6 -0.26,-1.21 -0.45,-0.52 -1.32,-0.02 0.44,-0.7 1.11,-1.19 -0.23,-1.3 -0.8,-0.07 -1.29,0.42 -1.58,1.09 -0.72,1.63 0.09,3.29 0.47,4.74z"/>
   <path class="fil0" d="M306.17 85.48c0.68,-0.2 0.41,-0.08 0.84,-0.59 0.21,-0.25 0.27,-0.49 0.54,-0.82l-0.54 1.88c3.51,0.66 2.18,-4.53 0.81,-5.47 -1.26,3.66 -2.11,2.92 -1.65,5z"/>
   <path class="fil0" d="M316.38 98.03l1.05 -1.29c-0.2,0.74 -0.31,0.81 -0.53,1.57 2.06,-0.62 2.56,-3.38 1.41,-5.24 -0.05,0.06 -0.12,0.07 -0.14,0.17 -0.19,0.83 -0.03,0.03 -0.28,0.33 -1.33,1.6 -3.43,2.76 -1.51,4.46z"/>
   <path class="fil0" d="M316.41 106.97l2.05 -0.52c-0.92,0.48 -1.12,0.17 -1.88,1.09 0.64,0.92 1.4,1.25 2.68,0.39 1.01,-0.68 0.99,-0.8 2.32,-1.5 -0.14,-0.19 -0.02,-0.17 -0.37,-0.42 -0.15,-0.1 -0.5,-0.26 -0.76,-0.35 -0.4,-0.13 -1.11,-0.26 -1.58,-0.25 -1.46,0.02 -2.05,0.49 -2.46,1.56z"/>
   <path class="fil0" d="M331.73 114.33l1.77 -0.42c-0.81,0.48 -1.07,0.23 -1.68,1.09 1.31,1.56 1.83,0.86 4.43,-0.83 0.69,-0.45 0.31,-0.16 0.69,-0.59 -1.84,-0.57 -4.16,-1.72 -5.21,0.75z"/>
   <path class="fil0" d="M289.05 113.03l0.71 -1.61 -0.32 2.01c2.86,-0.36 1.83,-2.14 2.36,-4.85 -1.51,0.4 -4.13,2.53 -2.75,4.45z"/>
   <path class="fil0" d="M286.01 111.37c0.4,-0.66 0.28,-0.65 0.33,-1.58 0.03,0.08 0.11,0.54 0.12,0.56 0.51,1.3 -0.53,-0.97 0.19,0.45l0.31 0.45c0.66,-2.33 -0.18,-4.07 -2.03,-5.1 0.11,2.6 -1.41,4.58 1.08,5.22z"/>
   <path class="fil0" d="M322.28 112.4c0.2,-0.22 0.22,-0.24 0.39,-0.5l0.31 0.84c3.22,-0.22 0.77,-4.04 -0.21,-4.91 -0.17,2.06 -1.46,3.37 -0.49,4.57z"/>
   <path class="fil0" d="M285.94 90.13l0.72 0.15c0.29,0.02 0.2,-0.08 0.7,0.02 -1.35,0.25 -1.14,0.21 -1.38,1.01 0.78,0.49 1.35,0.77 2.45,0.14 0.41,-0.23 1.85,-1.04 2.22,-1.29 -1.28,-0.96 -3.67,-1.68 -4.71,-0.03z"/>
   <path class="fil0" d="M317.21 91.4c0.69,-1.14 -0.24,-0.17 0.16,-0.73l0.48 -0.26c-0.51,-1.54 -1.51,-1.86 -3.18,-1.97 1.32,2.78 0.97,2.96 2.54,2.96z"/>
   <path class="fil0" d="M312.02 91.37l-0.54 -1.72 1.16 1.33c0.07,-1.83 -0.97,-2.5 -2.67,-2.75 0.58,1.78 0.21,2.89 2.05,3.14z"/>
   <path class="fil0" d="M32.88 97.32l0 -9 6.93 0.15 0 -1.77c0,-9.29 4.5,-13.94 13.5,-13.94 3.32,0 5.9,0.44 7.6,1.4 1.7,0.96 2.58,2.29 2.58,4.13 0,1.48 -0.51,3.1 -1.47,4.94 -1.85,-0.96 -3.99,-1.47 -6.42,-1.47 -1.99,0 -3.39,0.44 -4.28,1.25 -0.88,0.89 -1.33,2.29 -1.33,4.13l0 1.4 10.85 -0.22 0 9 -10.11 -0.22 0 28.26 -10.92 0 0 -28.18 -6.93 0.14z"/>
   <path class="fil0" d="M95.29 125.43l-6.49 0c-3.62,0 -5.61,-1.99 -6.05,-5.9 -2.44,4.35 -6.35,6.49 -11.73,6.49 -3.32,0 -6.13,-0.96 -8.41,-2.88 -2.29,-1.84 -3.47,-4.5 -3.47,-7.89 0,-8.34 6.05,-12.54 18.22,-12.54l5.31 0c0,-2.29 -0.59,-3.99 -1.69,-5.02 -1.11,-0.96 -2.88,-1.47 -5.31,-1.47 -4.58,0 -8.49,1.1 -11.81,3.24 -1.1,-1.47 -1.69,-3.32 -1.69,-5.46 0,-1.84 0.66,-3.09 1.91,-3.91 2.95,-1.69 7.16,-2.58 12.54,-2.58 5.32,0 9.45,1.26 12.47,3.84 2.95,2.58 4.43,6.19 4.43,10.99l0 14.39c0,3.9 0.59,6.78 1.77,8.7zm-21.76 -7.75l0 0c3.61,0 6.71,-1.55 9.22,-4.72l0 -3.98 -5.09 0c-5.54,0 -8.34,1.7 -8.34,5.09 0,1.11 0.37,1.99 1.18,2.66 0.81,0.66 1.77,0.95 3.03,0.95z"/>
   <path class="fil0" d="M110.26 94.67c0.96,-1.85 2.51,-3.47 4.5,-4.87 2,-1.4 4.21,-2.14 6.64,-2.14 1.99,0 3.62,0.59 4.95,1.7 1.32,1.1 1.99,2.8 1.99,4.94 0,2.29 -0.52,4.5 -1.48,6.56 -1.92,-1.77 -4.35,-2.65 -7.38,-2.65 -3.76,0 -6.78,1.47 -9.22,4.35l0 22.8 -11.06 0 0 -37.04 4.42 0c2.29,0 3.91,0.52 4.87,1.55 0.96,1.11 1.55,2.66 1.77,4.8z"/>
   <path class="fil0" d="M176.51 119.01l0 -17.11c0,-3.47 -1.48,-5.24 -4.35,-5.24 -1.7,0 -3.25,0.52 -4.72,1.62 -1.48,1.11 -2.59,2.36 -3.4,3.76l0 23.32 -10.84 0 0 -23.46c0,-3.47 -1.48,-5.24 -4.35,-5.24 -1.7,0 -3.25,0.52 -4.73,1.62 -1.47,1.11 -2.58,2.36 -3.39,3.76l0 23.32 -10.84 0 0 -37.04 4.2 0c2.29,0 3.91,0.45 4.87,1.4 0.96,0.96 1.55,2.44 1.77,4.5 2.88,-4.35 7.08,-6.56 12.47,-6.56 5.16,0 8.48,2.43 9.96,7.23 1.32,-2.21 3.1,-3.98 5.38,-5.31 2.29,-1.26 4.8,-1.92 7.6,-1.92 3.61,0 6.42,1.11 8.34,3.39 1.91,2.29 2.87,5.61 2.87,9.81l0 24.5 -4.13 0c-4.5,0 -6.71,-2.14 -6.71,-6.35z"/>
   <path class="fil1" d="M196.13 121c-3.39,-3.46 -5.09,-8.19 -5.09,-14.16 0,-5.98 1.7,-10.7 5.09,-14.16 3.32,-3.47 8.12,-5.17 14.24,-5.17 4.06,0 7.45,0.59 10.18,1.85 1.11,0.51 1.84,1.03 2.29,1.69 0.37,0.67 0.59,1.7 0.59,2.95 0,1.92 -0.52,3.84 -1.55,5.76 -3.17,-2.07 -6.64,-3.1 -10.55,-3.1 -6.12,0 -9.22,3.39 -9.22,10.18 0,3.17 0.81,5.61 2.43,7.45 1.62,1.84 4.06,2.73 7.23,2.73 3.62,0 7.23,-1.11 10.7,-3.39 1.03,1.91 1.55,3.83 1.55,5.75 0,1.25 -0.22,2.14 -0.67,2.8 -0.44,0.67 -1.18,1.33 -2.21,1.85 -2.58,1.4 -6.12,2.14 -10.48,2.14 -6.27,0 -11.13,-1.7 -14.53,-5.17z"/>
   <path class="fil1" d="M238.18 94.67c0.96,-1.85 2.51,-3.47 4.5,-4.87 1.99,-1.4 4.21,-2.14 6.64,-2.14 1.99,0 3.62,0.59 4.94,1.7 1.33,1.1 2,2.8 2,4.94 0,2.29 -0.52,4.5 -1.48,6.56 -1.92,-1.77 -4.35,-2.65 -7.38,-2.65 -3.76,0 -6.78,1.47 -9.22,4.35l0 22.8 -11.06 0 0 -37.04 4.42 0c2.29,0 3.91,0.52 4.87,1.55 0.96,1.11 1.55,2.66 1.77,4.8z"/>
   <path class="fil1" d="M383.56 108.67l-4.57 15.64 -15.12 0 -10.11 -37.04 12.39 0 3.54 14.76c1.26,5.02 2,9.74 2.14,14.24l0.3 0c0.37,-4.43 1.4,-9.45 3.02,-14.9l4.5 -14.1 11.88 0 4.43 14.1c1.4,5.45 2.28,10.47 2.65,14.9l0.22 0c0.15,-4.58 0.74,-9.37 1.85,-14.46l4.35 -14.54 12.39 0 -10.99 37.04 -14.01 0 -4.5 -15.64 -2.14 -12.39 -0.15 0c-0.59,5.31 -1.25,9.44 -2.07,12.39z"/>
   <path class="fil1" d="M442.65 109.55l0 -8.85c-2.21,-3.32 -4.72,-4.94 -7.52,-4.94 -2.29,0 -4.06,0.88 -5.46,2.58 -1.4,1.7 -2.06,4.21 -2.06,7.45 0,3.25 0.66,5.76 1.99,7.45 1.32,1.7 3.1,2.58 5.38,2.58 1.63,0 3.1,-0.59 4.5,-1.84 1.4,-1.25 2.44,-2.73 3.17,-4.43zm10.77 -30.68l0 0 0 36.81c0,3.91 0.6,6.78 1.78,8.7l-6.79 0c-3.62,0 -5.61,-1.99 -6.05,-5.9 -2.44,4.43 -6.05,6.64 -10.7,6.64 -4.57,0 -8.26,-1.7 -10.99,-5.09 -2.73,-3.32 -4.13,-8.12 -4.13,-14.24 0,-6.12 1.4,-10.92 4.2,-14.31 2.81,-3.32 6.5,-5.02 11.07,-5.02 2.43,0 4.5,0.52 6.34,1.63 1.77,1.1 3.18,2.5 4.21,4.05l0 -19.62 4.35 0c4.5,0 6.71,2.14 6.71,6.35z"/>
   <path class="fil1" d="M495.18 87.27l0 32.76c0,6.34 -1.7,11.21 -5.09,14.61 -3.47,3.32 -8.19,5.01 -14.31,5.01 -5.54,0 -9.3,-0.66 -11.44,-2.06 -1.84,-1.26 -2.8,-2.95 -2.8,-5.09 0,-2.59 0.59,-4.65 1.7,-6.13 2.8,2.59 6.49,3.84 10.99,3.84 3.32,0 5.75,-0.66 7.45,-1.99 1.62,-1.33 2.43,-3.62 2.43,-6.86l0 -3.54c-3.1,4.35 -7.08,6.49 -12.02,6.49 -4.21,0 -7.38,-1.33 -9.67,-3.99 -2.28,-2.65 -3.39,-6.56 -3.39,-11.65l0 -21.4 4.35 0c4.5,0 6.72,2.14 6.72,6.35l0 14.02c0,4.79 1.84,7.23 5.6,7.23 3.77,0 6.57,-1.63 8.41,-4.95l0 -22.65 11.07 0z"/>
  </g>
  <rect class="fil2" width="608.9" height="201.8"/>
 </g>
</svg>
