<?xml version="1.0" encoding="UTF-8"?>
<!DOCTYPE svg PUBLIC "-//W3C//DTD SVG 1.1//EN" "http://www.w3.org/Graphics/SVG/1.1/DTD/svg11.dtd">
<!-- Creator: CorelDRAW 2017 -->
<svg xmlns="http://www.w3.org/2000/svg" xml:space="preserve" width="1776px" height="378px" version="1.1" style="shape-rendering:geometricPrecision; text-rendering:geometricPrecision; image-rendering:optimizeQuality; fill-rule:evenodd; clip-rule:evenodd"
viewBox="0 0 1775.99 377.65"
 xmlns:xlink="http://www.w3.org/1999/xlink">
 <defs>
  <style type="text/css">
   <![CDATA[
    .fil1 {fill:#293737}
    .fil0 {fill:#ABBA16}
    .fil2 {fill:#293737;fill-rule:nonzero}
   ]]>
  </style>
 </defs>
 <g id="Layer_x0020_1">
  <metadata id="CorelCorpID_0Corel-Layer"/>
  <g id="_2853253627808">
   <path class="fil0" d="M1022.67 1.2c-101.88,12.24 -174.71,101.23 -163.07,203.22 6.23,54.61 34.98,95.94 63.91,119.84 33.14,27.36 79.95,49.08 139.13,42.53 94.12,-10.41 173.92,-94.99 162.36,-202.96 -5.43,-50.82 -28.48,-88.15 -63.76,-119.95 -30.06,-27.09 -82.96,-49.37 -138.57,-42.68zm0.56 4.02l0 0c94.86,-11.98 186.72,59.19 197.73,159.54 11.56,105.45 -67.23,187.47 -159.06,197.97 -73.09,8.35 -141.99,-29.34 -176.68,-91.44 -10.89,-19.48 -18.66,-41.83 -21.57,-67.62 -8.22,-73.04 28.94,-141.93 91.58,-176.97 20.53,-11.48 41.15,-18.09 68,-21.48z"/>
   <path class="fil1" d="M1035.54 13.3c-142.17,3.71 -224.84,183.65 -109.93,295.1 49.88,48.37 128.88,59.88 191.68,29.06 59.93,-29.4 97.62,-91.42 95.33,-160.63 -1.21,-36.51 -13.3,-66.48 -32.99,-94.03 -3.52,-4.92 -6.06,-7.25 -9.54,-11.63 -15.13,-18.99 -39.79,-34.87 -62.43,-44.87 -21.09,-9.32 -46.86,-13.66 -72.12,-13zm3.58 150.36l0 0c0.82,1.47 0.46,-0.3 0.47,1.99l-3.42 13.06c-1.23,5.34 -2.32,11.33 -3.54,16.85 -4.95,-7.9 -9.46,-26.29 -11.09,-37.16 -2.75,-18.37 -0.21,-27.74 0.67,-44.72 -3.25,6.45 -4.43,16.27 -5.52,24.58 -6.11,-6.16 -7.37,-11.58 -16.62,-15.62 9.13,7.45 13.76,16.77 14.5,32.66 0.87,18.58 3.69,24.64 7.58,40.44 -6.55,-3.82 -10.05,-7.75 -15.08,-13.48 -23.81,-27.05 -31.29,-8.97 -40.67,-45.2 -0.44,13.18 2.69,14.41 5.87,23.99 -7.67,0.13 -15.33,-0.65 -21.27,2.8 15.39,1.78 26.13,3.15 36.97,10.98 21.86,15.77 48.68,60.24 50.43,91.14 -6.98,-3.35 -13.8,-18.74 -44.76,-29.95 -10.12,-3.67 -18.56,-4.83 -27.02,-10.11 -5.02,-3.14 -14.93,-13 -14.81,-20.09 -0.07,8.36 7.81,19.05 11.74,22.02l-32.2 1.35c21.11,1.89 31.63,-0.08 50.75,7.78 12.89,5.3 28.51,14.62 35.95,22.38 4.75,4.95 19.74,17.51 17.16,25.53l-12.81 31.91c-4.26,10.56 -3.62,11.17 -4.85,23.67 -25.63,-0.82 -68.25,-23.2 -87.8,-44.76 -27.58,-30.4 -50.94,-70.2 -45.53,-124.43 3.97,-39.83 20.98,-77.93 49.69,-103.23 45.6,-40.17 111.16,-57.27 172.18,-29.35 19.81,9.07 32.2,18.23 46,30.33 1.97,1.73 2.78,3.04 4.52,4.96 97.86,108.29 19.65,256.25 -94.44,267.27 -4.75,-20.31 -2.82,-29.34 2.79,-48.75 6.04,-20.92 9.35,-22.53 22.95,-33.28 31.89,-25.21 46,-24.79 76.81,-35.66 -11.67,-0.48 -20.48,1.69 -31.51,3.24 5.67,-9.56 8.37,-10.92 9.57,-24.39 -2.55,25.4 -31.54,29.62 -58.17,46.1 -7.45,4.6 -13.34,9.5 -19.6,13.68 -12.91,-25.04 5.31,-33.01 23.55,-59.62 4.99,-7.29 11.9,-20.79 13.94,-31.76 3.11,-16.67 7.02,-19.32 17.51,-28.16 -8.46,2.56 -11.33,7.43 -15.94,11.69l-1.89 -12.96c-0.97,19.91 -1.6,38.84 -20.42,55.3 3.77,-25.05 2.67,-27.26 -5.96,-47.5 8.37,25.33 1.23,48.91 -14.87,68.2l-14.19 15.49c-1.93,-11.82 -3.2,-24.96 -3.16,-37.2 0.03,-6.6 1.91,-26.62 6.27,-32.72 0.93,-8.85 10.75,-24.85 14.87,-30.94l15.98 -19.01c3.04,-2.75 3.53,-2.35 5.52,-5.64 -3.88,2.22 -12.4,8.96 -14.59,11.35 0.05,-5.02 0.87,-8.42 0.08,-13.98 -0.63,-4.51 -3.01,-8.11 -3.26,-11.37 1.13,7.91 3.16,11.96 0.41,21.54 -5,17.43 -26.27,34.82 -26.94,46.33l0.05 -18.03c-7.7,2.72 -15.12,11.39 -11.24,21.79 1.86,-2.29 2.74,-6.47 4.02,-9.55l-1.63 10.48c3.94,-0.49 3.38,0.02 6,-2.26z"/>
   <path class="fil0" d="M1098.51 111.99c7.94,-3.39 16.42,-11.7 30.92,-12.68 -10.21,4.28 -22.64,8.2 -28.57,15.71 16.71,17.08 32.42,-6.5 38.36,-11.41 4.63,-3.81 8.38,-4.56 12.54,-7.59 -10.23,-3.61 -21.12,-7.54 -33.58,-5.02 -11.19,2.27 -20.58,8.39 -19.67,20.99z"/>
   <path class="fil0" d="M1106.85 253.8c18.49,-2.01 20.68,0.25 35.98,3 -15.08,-0.39 -18.42,-3.26 -35.42,0.71 12.77,25.6 28.46,4.45 52.57,5.84 -14.97,-21.55 -49.41,-28.4 -53.13,-9.55z"/>
   <path class="fil0" d="M938.33 110.69l1.55 0.85c0.19,0.07 0.57,0.27 0.8,0.35l4.21 1.09c2.46,0.6 4.25,1.21 6.29,2.09 11.24,4.82 23.08,17.96 33.54,-1.89 -6.02,-3.97 -19.83,-6.09 -27.79,-5.99 12.74,-0.65 16.68,0.07 28.02,2.32 -3.01,-8.81 -11.52,-11.93 -23.06,-10.47 -11.92,1.5 -16.63,7.96 -23.56,11.65z"/>
   <path class="fil0" d="M1147.65 213.56c6.26,-5.62 7.19,-10.17 15.75,-14.95 -3.42,5.56 -10.86,9.84 -12.92,18.23 22.09,7.44 17.22,-6.45 34.56,-30.14 -18.97,-1.6 -41.21,7.94 -37.39,26.86z"/>
   <path class="fil0" d="M1061.08 84.77c0.43,-5.33 -6.77,-15.9 -9.04,-19.51 6.61,5.5 7.48,9.7 10.72,14.55l2.21 2.71c2.84,-11.32 -1.39,-16.6 -7.71,-22.65 -5.22,-4.99 -13.63,-9.51 -22.97,-9.36 11.91,18.66 3.49,38.92 26.79,34.26z"/>
   <path class="fil0" d="M1108.92 180.82c7.28,6.79 4.56,0.68 19.9,17.34 -1.54,-4.1 -15.74,-12.3 -22.54,-14.94 -6.76,19.32 13.2,19.93 21.26,22.82 4.72,1.69 7.09,4.02 10.7,5.5 -1.36,-31.5 -28.71,-36.25 -29.32,-30.72z"/>
   <path class="fil0" d="M1036.94 136.96c1.4,-6.71 0.54,-12.51 0.11,-19.25l0.78 1.64c1.36,3.64 2.02,6.77 2.18,16.61 12.64,-7.39 3.94,-31.86 -12.39,-40.3 2.02,18.16 -11.81,36.89 9.32,41.3z"/>
   <path class="fil0" d="M919.47 141.55c10.62,5 11.12,5.78 18.52,12.17 7.78,6.72 17.27,4.74 21.07,-3.98 -4.79,-1.75 -13.4,-5.7 -18.7,-8 8.06,0.32 12.61,2.92 19.44,5.61 -2.44,-13.43 -18.82,-14.73 -30.02,-11.35l-10.31 5.55z"/>
   <path class="fil0" d="M910.14 199.2c7.18,6.74 8.03,6.04 14.41,15.72 4.68,7.1 12.27,10.59 20.51,3.04 -2.15,-4.69 -11.86,-11.47 -16.63,-13.43 8.91,1.78 12.99,7.91 18.72,10.53 -0.6,-17.29 -20.97,-20.15 -37.01,-15.86z"/>
   <path class="fil0" d="M996.05 291.69c7.26,-19.55 23.49,-12.04 21.07,-30.89 -7.04,1.89 -14.07,8.73 -16.75,14.11 3.41,-9.14 11.37,-13.18 14.26,-16.7 -18.04,-16.53 -27.12,21.58 -18.58,33.48z"/>
   <path class="fil0" d="M1008.63 239.17c2.1,-7.55 2.14,-9.7 2.2,-18.3 2.03,5.53 1.07,12.39 0.17,18.7 12.64,-1.33 13.97,-10.16 8.65,-21.08 -3.84,-7.87 -11.02,-12.82 -17.22,-17.08 0.32,8.31 2.74,10.65 0.49,20.58 -2.03,8.97 -2.15,14.21 5.71,17.18z"/>
   <path class="fil0" d="M1004.2 173.64c0.43,-10.02 -1.44,-16.69 -1.45,-23.97 0,0.07 3.5,18.32 3.97,23.36 10.66,-6.67 4.65,-28.81 -11.58,-37.42 1.76,16.72 -10.97,35.43 9.06,38.03z"/>
   <path class="fil0" d="M1128.56 146.95l20.95 -1.13c-7,1.04 -15.27,0.63 -20.72,4.22 5.9,18.03 20.79,1.33 35.05,0.25 -1.79,-3.26 -0.32,-1.41 -3.24,-3.91 -0.56,-0.48 -2.65,-1.93 -3.76,-2.59 -9.6,-5.74 -24.3,-7.28 -28.28,3.16z"/>
   <path class="fil0" d="M1012.4 114.54c0.24,-4.7 -2.76,-7.94 -4.13,-12.49l3.57 4.35c1.28,2.17 1.88,3.83 2.6,5.82 0,-0.01 1.9,-0.53 2.33,-4.71 0.97,-9.31 -11.22,-19.83 -24.63,-21.61 3.04,8.14 3.55,10.29 5.76,19.46 1.84,7.66 5.59,10.46 14.5,9.18z"/>
   <path class="fil0" d="M946.59 266.32c4.31,-5.5 4.79,-8.11 10.36,-11.84 5.76,-3.86 10.19,-4.39 8.68,-13.96 -4.06,-0.31 -6.03,2.21 -9.42,4.19 2.4,-4.02 4.55,-4.76 7.28,-7.2 -15.7,-13.14 -21.78,13.75 -16.9,28.81z"/>
   <path class="fil0" d="M949.86 195.34c6.14,-2.96 6.99,-5.36 15.2,-6.96 7.67,-1.49 11.75,-1.86 11.64,-10.55 -7.32,0.51 -8.95,2.05 -14.52,3.93 5.73,-4.13 7,-3.36 13.47,-6.25 -3.62,-12.79 -22.58,-6.83 -25.79,19.83z"/>
   <path class="fil0" d="M1075.95 243.78l8.67 -14.87c-2.05,5.76 -4.54,9.04 -5.63,16.64 16.37,-0.19 11.04,-8.76 17.44,-29.79 -11.45,2.47 -25.22,13.84 -20.48,28.02z"/>
   <path class="fil0" d="M1054.1 207.13c0.79,-1.32 5.47,-14.52 5.9,-16.18l-3.84 17.28c16.68,1.75 10.52,-16.75 13.03,-30.4 -7.99,2.5 -25.95,20.24 -15.09,29.3z"/>
   <path class="fil0" d="M1084.75 268.91c0.23,0.15 0.59,0.08 0.71,0.41l2.16 1.1c4.08,1.77 5.71,1.61 10,4.78 -5.47,-1.61 -8.08,-3.09 -14.81,-3.54 0.83,16.74 13.55,11.04 28.89,14.57 -1.61,-6.77 -5.38,-11.52 -9.28,-14.76 -3.81,-3.16 -12.81,-8.09 -17.67,-2.56z"/>
   <path class="fil0" d="M914.87 173.7c7.65,-0.75 9.89,-1.04 16.97,1.11 6.52,1.98 10.92,1.8 12.88,-3.54 -4.74,-3.19 -8.45,-2.58 -13.68,-3.81l14.72 1.16c-0.49,-19.41 -25.47,-6.1 -30.89,5.08z"/>
   <path class="fil0" d="M1037.17 93.14c1.84,-3.54 -1.59,-7.07 -4.3,-11.8 2.62,2.62 4.94,6.89 7.45,9.2 3.28,-5.57 -2.07,-11.91 -4.83,-14.21 -4.01,-3.36 -9.1,-4.92 -15.47,-5.63 6.77,15.99 6.34,25 17.15,22.44z"/>
   <path class="fil0" d="M1126.09 125.91c4.96,-1.31 7.37,-2.96 13.05,-3.15 -4.23,1.29 -9.81,2.55 -12.65,6.01 3.2,4.5 8.4,6.93 14.58,2.15 6.64,-5.12 5.73,-4.22 13.4,-8.15 -7.54,-5.56 -25.16,-9.61 -28.38,3.14z"/>
   <path class="fil0" d="M985.13 268.72c0.79,-5.35 1.19,-8.93 3.53,-13.31 6.79,-12.68 0.78,-16.56 -3.08,-8.36 -1.39,2.94 -1.38,3.81 -2.21,6.9 0.07,-6.16 1.76,-7.39 3.34,-12.56 -16.73,0.44 -11.7,18.33 -1.58,27.33z"/>
   <path class="fil0" d="M1049.85 162.95l9.82 -0.38 -9.04 3.99c4.43,11.17 12.23,3.78 23.29,-1.99l2.93 -1.99c-4.36,-1.52 -12.12,-7.5 -21.33,-3.73l-3.31 2.04c-0.18,0.15 -0.42,0.37 -0.59,0.51 -0.17,0.14 -0.44,0.38 -0.59,0.51 -0.16,0.14 -0.47,0.41 -0.59,0.52 -0.13,0.11 -0.38,0.37 -0.59,0.52z"/>
   <path class="fil0" d="M1112.2 169.06c4.33,-1.15 7.68,-2.4 12.52,-2.68 -4.66,0.56 -8.82,1.86 -11.96,4.89 5.63,10.07 13.84,0.47 17.84,-2 2.1,-1.3 3.89,-1.78 5.89,-2.97 -7.18,-4.11 -20.94,-8.4 -24.29,2.76z"/>
   <path class="fil0" d="M1039.12 163.66c2.37,-3.3 0.33,-0.79 2.8,-2.43l0.05 -18.03c-7.7,2.72 -15.12,11.39 -11.24,21.79 1.86,-2.29 2.74,-6.47 4.02,-9.55l-1.63 10.48c3.94,-0.49 3.38,0.02 6,-2.26z"/>
   <path class="fil0" d="M1097.47 132.93l-3.07 -9.71c1.06,0.92 0.69,0.41 1.72,1.7l2.68 4.78c1.61,2.48 0.2,0.89 2.06,2.24 7.76,-10.2 -5.19,-16.9 -17.47,-17.38 1.41,2.77 0.25,0.6 1.46,2.43 8.69,13.21 3.7,15.67 12.62,15.94z"/>
   <path class="fil0" d="M1089.21 96.03l1.45 -0.42c6.97,-2.49 5.41,-15.09 -2.62,-21.68 -4.95,11.63 -7.45,19.14 1.17,22.1z"/>
   <path class="fil0" d="M986.21 207.82c3.33,-3.66 1.78,-5.02 7.39,-11.18 1.36,-1.49 3.45,-3.1 2.81,-6.12 -0.99,-4.66 -1.73,-1.99 -5.06,-0.08 1.7,-2.71 4.26,-4.58 -0.89,-5.02 -3.08,-0.26 -4.95,1.62 -6.08,4.19 -2.76,6.27 0.34,12.66 1.83,18.21z"/>
   <path class="fil0" d="M1049.89 124.74c2.62,-0.76 1.58,-0.3 3.22,-2.26 0.8,-0.97 1.04,-1.89 2.06,-3.17l-2.05 7.25c13.49,2.51 8.38,-17.43 3.11,-21.04 -4.84,14.08 -8.11,11.21 -6.34,19.22z"/>
   <path class="fil0" d="M1089.1 172.95l4.04 -4.95c-0.75,2.85 -1.18,3.13 -2.04,6.03 7.91,-2.39 9.83,-13 5.43,-20.12 -0.19,0.22 -0.47,0.26 -0.55,0.65 -0.71,3.18 -0.11,0.11 -1.06,1.25 -5.1,6.14 -13.17,10.62 -5.82,17.14z"/>
   <path class="fil0" d="M1089.22 207.32l7.89 -2.02c-3.55,1.83 -4.32,0.65 -7.23,4.18 2.46,3.55 5.39,4.81 10.3,1.52 3.88,-2.61 3.79,-3.1 8.89,-5.77 -0.52,-0.74 -0.05,-0.68 -1.39,-1.61 -0.57,-0.39 -1.94,-1.02 -2.91,-1.35 -1.57,-0.52 -4.27,-1.01 -6.08,-0.98 -5.61,0.07 -7.89,1.89 -9.47,6.03z"/>
   <path class="fil0" d="M1148.08 235.58l6.78 -1.61c-3.08,1.82 -4.1,0.88 -6.43,4.16 5.04,6.01 7.04,3.33 17.03,-3.17 2.64,-1.72 1.18,-0.62 2.63,-2.28 -7.08,-2.17 -15.98,-6.6 -20.01,2.9z"/>
   <path class="fil0" d="M984.11 230.59l2.74 -6.18 -1.22 7.72c10.96,-1.39 7.02,-8.23 9.05,-18.66 -5.79,1.54 -15.86,9.75 -10.57,17.12z"/>
   <path class="fil0" d="M972.44 224.2c1.53,-2.53 1.06,-2.49 1.28,-6.08 0.1,0.34 0.4,2.07 0.44,2.16 1.96,5.02 -2.04,-3.71 0.73,1.72l1.19 1.76c2.55,-8.96 -0.69,-15.67 -7.79,-19.6 0.41,9.96 -5.4,17.58 4.15,20.04z"/>
   <path class="fil0" d="M1111.79 228.17c0.76,-0.86 0.83,-0.92 1.5,-1.94l1.18 3.22c12.37,-0.82 2.95,-15.52 -0.79,-18.84 -0.68,7.89 -5.62,12.93 -1.89,17.56z"/>
   <path class="fil0" d="M972.17 142.61l2.75 0.57c1.13,0.07 0.79,-0.32 2.73,0.06 -5.21,0.96 -4.4,0.81 -5.31,3.91 2.99,1.85 5.17,2.93 9.41,0.54 1.57,-0.88 7.1,-4.02 8.54,-4.99 -4.92,-3.66 -14.11,-6.43 -18.12,-0.09z"/>
   <path class="fil0" d="M1092.28 147.47c2.68,-4.35 -0.9,-0.65 0.65,-2.79l1.83 -1.01c-1.96,-5.92 -5.79,-7.14 -12.23,-7.56 5.1,10.67 3.75,11.36 9.75,11.36z"/>
   <path class="fil0" d="M1072.36 147.35l-2.08 -6.58 4.45 5.1c0.29,-7.05 -3.7,-9.61 -10.22,-10.58 2.21,6.86 0.78,11.13 7.85,12.06z"/>
   <path class="fil0" d="M0 170.24l0 -34.58 26.64 0.57 0 -6.8c0,-35.71 17.29,-53.56 51.86,-53.56 12.76,0 22.68,1.7 29.19,5.38 6.52,3.68 9.92,8.79 9.92,15.87 0,5.67 -1.98,11.9 -5.67,18.99 -7.08,-3.68 -15.3,-5.67 -24.65,-5.67 -7.65,0 -13.04,1.7 -16.44,4.82 -3.4,3.4 -5.1,8.78 -5.1,15.87l0 5.38 41.66 -0.85 0 34.58 -38.82 -0.85 0 108.54 -41.95 0 0 -108.26 -26.64 0.57z"/>
   <path class="fil0" d="M239.76 278.21l-24.94 0c-13.89,0 -21.54,-7.65 -23.24,-22.67 -9.35,16.72 -24.37,24.94 -45.06,24.94 -12.75,0 -23.52,-3.68 -32.31,-11.05 -8.78,-7.09 -13.32,-17.29 -13.32,-30.32 0,-32.03 23.24,-48.18 70,-48.18l20.41 0c0,-8.79 -2.27,-15.31 -6.52,-19.27 -4.25,-3.69 -11.06,-5.67 -20.41,-5.67 -17.57,0 -32.59,4.25 -45.34,12.47 -4.25,-5.67 -6.52,-12.76 -6.52,-20.97 0,-7.09 2.55,-11.91 7.37,-15.02 11.34,-6.52 27.49,-9.92 48.18,-9.92 20.4,0 36.27,4.81 47.89,14.73 11.34,9.92 17.01,23.81 17.01,42.23l0 55.26c0,15.02 2.26,26.08 6.8,33.44zm-83.61 -29.75l0 0c13.89,0 25.79,-5.95 35.43,-18.14l0 -15.3 -19.55 0c-21.26,0 -32.03,6.52 -32.03,19.55 0,4.25 1.42,7.65 4.54,10.2 3.11,2.55 6.8,3.69 11.61,3.69z"/>
   <path class="fil0" d="M297.29 160.04c3.68,-7.09 9.63,-13.32 17.29,-18.71 7.65,-5.38 16.15,-8.22 25.5,-8.22 7.65,0 13.89,2.27 18.99,6.52 5.1,4.25 7.65,10.77 7.65,18.99 0,8.79 -1.98,17.29 -5.67,25.22 -7.37,-6.8 -16.72,-10.2 -28.34,-10.2 -14.45,0 -26.07,5.67 -35.42,16.72l0 87.57 -42.51 0 0 -142.27 17 0c8.79,0 15.02,1.99 18.71,5.96 3.68,4.25 5.95,10.2 6.8,18.42z"/>
   <path class="fil0" d="M551.78 253.56l0 -65.75c0,-13.32 -5.67,-20.12 -16.72,-20.12 -6.52,0 -12.47,1.98 -18.14,6.23 -5.66,4.25 -9.92,9.07 -13.03,14.46l0 89.55 -41.66 0 0 -90.12c0,-13.32 -5.67,-20.12 -16.72,-20.12 -6.52,0 -12.47,1.98 -18.14,6.23 -5.67,4.25 -9.92,9.07 -13.04,14.46l0 89.55 -41.66 0 0 -142.27 16.15 0c8.79,0 15.02,1.7 18.71,5.39 3.68,3.68 5.95,9.35 6.8,17.29 11.05,-16.72 27.21,-25.23 47.9,-25.23 19.83,0 32.59,9.36 38.25,27.78 5.11,-8.51 11.91,-15.31 20.69,-20.41 8.79,-4.82 18.42,-7.37 29.19,-7.37 13.89,0 24.66,4.25 32.03,13.04 7.36,8.79 11.05,21.54 11.05,37.69l0 94.09 -15.87 0c-17.29,0 -25.79,-8.22 -25.79,-24.37z"/>
   <path class="fil1" d="M627.16 261.21c-13.03,-13.32 -19.55,-31.46 -19.55,-54.41 0,-22.96 6.52,-41.1 19.55,-54.42 12.76,-13.32 31.18,-19.83 54.7,-19.83 15.59,0 28.62,2.26 39.11,7.08 4.25,1.99 7.09,3.97 8.79,6.52 1.41,2.55 2.26,6.52 2.26,11.34 0,7.36 -1.98,14.73 -5.95,22.1 -12.18,-7.93 -25.51,-11.9 -40.53,-11.9 -23.52,0 -35.42,13.03 -35.42,39.11 0,12.18 3.12,21.54 9.35,28.62 6.24,7.09 15.59,10.49 27.77,10.49 13.89,0 27.78,-4.25 41.1,-13.04 3.97,7.37 5.95,14.74 5.95,22.11 0,4.81 -0.85,8.21 -2.55,10.76 -1.7,2.56 -4.54,5.11 -8.5,7.09 -9.92,5.38 -23.53,8.22 -40.25,8.22 -24.09,0 -42.79,-6.52 -55.83,-19.84z"/>
   <path class="fil1" d="M788.7 160.04c3.69,-7.09 9.64,-13.32 17.29,-18.71 7.65,-5.38 16.15,-8.22 25.51,-8.22 7.65,0 13.88,2.27 18.99,6.52 5.1,4.25 7.65,10.77 7.65,18.99 0,8.79 -1.99,17.29 -5.67,25.22 -7.37,-6.8 -16.72,-10.2 -28.34,-10.2 -14.45,0 -26.08,5.67 -35.43,16.72l0 87.57 -42.51 0 0 -142.27 17.01 0c8.78,0 15.02,1.99 18.7,5.96 3.68,4.25 5.95,10.2 6.8,18.42z"/>
   <path class="fil1" d="M1347.21 213.82l-17.57 60.08 -58.1 0 -38.82 -142.26 47.61 0 13.6 56.68c4.82,19.27 7.65,37.41 8.22,54.69l1.13 0c1.42,-17 5.39,-36.27 11.62,-57.24l17.29 -54.13 45.63 0 17 54.13c5.39,20.97 8.79,40.24 10.21,57.24l0.84 0c0.57,-17.57 2.84,-35.99 7.09,-55.54l16.72 -55.83 47.61 0 -42.23 142.26 -53.84 0 -17.29 -60.08 -8.22 -47.61 -0.57 0c-2.26,20.41 -4.81,36.28 -7.93,47.61z"/>
   <path class="fil1" d="M1574.21 217.22l0 -34c-8.5,-12.76 -18.13,-18.99 -28.9,-18.99 -8.79,0 -15.59,3.4 -20.97,9.92 -5.39,6.52 -7.94,16.15 -7.94,28.62 0,12.47 2.55,22.11 7.65,28.62 5.1,6.52 11.9,9.92 20.69,9.92 6.24,0 11.9,-2.26 17.29,-7.08 5.38,-4.82 9.35,-10.49 12.18,-17.01zm41.38 -117.89l0 0 0 141.42c0,15.02 2.27,26.07 6.8,33.44l-26.07 0c-13.89,0 -21.54,-7.66 -23.24,-22.67 -9.35,17 -23.24,25.5 -41.09,25.5 -17.57,0 -31.74,-6.52 -42.23,-19.55 -10.49,-12.76 -15.87,-31.18 -15.87,-54.7 0,-23.52 5.38,-41.94 16.15,-54.98 10.77,-12.75 24.94,-19.27 42.51,-19.27 9.36,0 17.29,1.98 24.38,6.23 6.8,4.26 12.18,9.64 16.15,15.59l0 -75.38 16.72 0c17.29,0 25.79,8.21 25.79,24.37z"/>
   <path class="fil1" d="M1775.99 131.64l0 125.83c0,24.37 -6.51,43.07 -19.55,56.11 -13.32,12.75 -31.46,19.27 -54.98,19.27 -21.26,0 -35.71,-2.55 -43.93,-7.93 -7.08,-4.82 -10.77,-11.34 -10.77,-19.56 0,-9.92 2.27,-17.85 6.52,-23.52 10.77,9.92 24.94,14.74 42.23,14.74 12.75,0 22.1,-2.55 28.62,-7.66 6.24,-5.1 9.35,-13.88 9.35,-26.35l0 -13.6c-11.9,16.71 -27.2,24.93 -46.19,24.93 -16.15,0 -28.34,-5.1 -37.12,-15.3 -8.79,-10.2 -13.04,-25.22 -13.04,-44.78l0 -82.18 16.72 0c17.29,0 25.79,8.21 25.79,24.37l0 53.85c0,18.42 7.08,27.77 21.54,27.77 14.45,0 25.22,-6.24 32.3,-18.99l0 -87 42.51 0z"/>
  </g>
  <path class="fil2" d="M1306.97 335.31l36.33 0c0.21,0.83 0.38,1.83 0.52,3 0.14,1.18 0.21,2.35 0.21,3.52 0,4.77 -0.73,9.25 -2.18,13.46 -1.45,4.21 -3.72,7.97 -6.83,11.28 -3.31,3.52 -7.28,6.25 -11.9,8.18 -4.63,1.93 -9.91,2.9 -15.84,2.9 -5.38,0 -10.46,-0.97 -15.22,-2.9 -4.76,-1.93 -8.9,-4.62 -12.42,-8.07 -3.52,-3.45 -6.31,-7.54 -8.38,-12.27 -2.08,-4.73 -3.11,-9.89 -3.11,-15.47 0,-5.6 1.03,-10.75 3.11,-15.48 2.07,-4.73 4.86,-8.82 8.38,-12.27 3.52,-3.45 7.66,-6.14 12.42,-8.07 4.76,-1.93 9.84,-2.9 15.22,-2.9 6,0 11.37,1.04 16.1,3.11 4.72,2.06 8.78,4.93 12.16,8.59l-9.63 9.42c-2.41,-2.56 -5.11,-4.51 -8.07,-5.85 -2.97,-1.35 -6.52,-2.02 -10.66,-2.02 -3.39,0 -6.59,0.6 -9.63,1.81 -3.04,1.21 -5.7,2.92 -7.97,5.13 -2.28,2.2 -4.09,4.88 -5.44,8.02 -1.34,3.14 -2.02,6.64 -2.02,10.51 0,3.86 0.68,7.36 2.02,10.5 1.35,3.14 3.18,5.82 5.49,8.02 2.31,2.21 4.99,3.92 8.02,5.13 3.04,1.21 6.28,1.81 9.73,1.81 3.94,0 7.27,-0.57 9.99,-1.71 2.73,-1.14 5.06,-2.6 6.99,-4.4 1.38,-1.24 2.57,-2.81 3.57,-4.71 1,-1.9 1.78,-4.02 2.33,-6.36l-23.29 0 0 -11.91zm49.84 -33.43l27.02 0c3.73,0 7.11,0.58 10.14,1.76 3.04,1.17 5.65,2.79 7.82,4.86 2.17,2.07 3.85,4.54 5.02,7.4 1.17,2.87 1.76,5.99 1.76,9.37 0,2.49 -0.41,4.81 -1.24,6.99 -0.83,2.17 -1.97,4.14 -3.42,5.9 -1.45,1.76 -3.14,3.31 -5.07,4.66 -1.93,1.34 -3.97,2.39 -6.11,3.15l-0.1 0.73 19.87 28.47 0 0.82 -16.04 0 -19.15 -27.84 -6.52 0 0 27.84 -13.98 0 0 -74.11zm26.92 33.43c3.17,0 5.77,-0.96 7.81,-2.9 2.04,-1.93 3.05,-4.38 3.05,-7.35 0,-1.31 -0.22,-2.58 -0.67,-3.83 -0.45,-1.24 -1.12,-2.34 -2.02,-3.31 -0.89,-0.96 -2.01,-1.74 -3.36,-2.33 -1.35,-0.58 -2.88,-0.88 -4.61,-0.88l-13.14 0 0 20.6 12.94 0zm73.54 42.34c-5.52,0 -10.64,-1 -15.37,-3 -4.73,-2 -8.81,-4.75 -12.26,-8.23 -3.45,-3.49 -6.16,-7.59 -8.13,-12.32 -1.97,-4.73 -2.95,-9.78 -2.95,-15.16 0,-5.39 0.98,-10.44 2.95,-15.17 1.97,-4.73 4.68,-8.83 8.13,-12.32 3.45,-3.48 7.53,-6.23 12.26,-8.23 4.73,-2 9.85,-3 15.37,-3 5.52,0 10.65,1 15.38,3 4.72,2 8.81,4.75 12.26,8.23 3.45,3.49 6.16,7.59 8.13,12.32 1.97,4.73 2.95,9.78 2.95,15.17 0,5.38 -0.98,10.43 -2.95,15.16 -1.97,4.73 -4.68,8.83 -8.13,12.32 -3.45,3.48 -7.54,6.23 -12.26,8.23 -4.73,2 -9.86,3 -15.38,3zm0 -13.25c3.45,0 6.68,-0.62 9.68,-1.86 3.01,-1.25 5.63,-2.97 7.87,-5.18 2.24,-2.21 4,-4.88 5.28,-8.02 1.28,-3.14 1.92,-6.61 1.92,-10.4 0,-3.8 -0.64,-7.27 -1.92,-10.41 -1.28,-3.14 -3.04,-5.81 -5.28,-8.02 -2.24,-2.21 -4.86,-3.93 -7.87,-5.18 -3,-1.24 -6.23,-1.86 -9.68,-1.86 -3.45,0 -6.67,0.62 -9.67,1.86 -3.01,1.25 -5.63,2.97 -7.87,5.18 -2.24,2.21 -4,4.88 -5.28,8.02 -1.28,3.14 -1.92,6.61 -1.92,10.41 0,3.79 0.64,7.26 1.92,10.4 1.28,3.14 3.04,5.81 5.28,8.02 2.24,2.21 4.86,3.93 7.87,5.18 3,1.24 6.22,1.86 9.67,1.86zm78.31 13.25c-4.34,0 -8.29,-0.71 -11.85,-2.12 -3.55,-1.42 -6.57,-3.47 -9.06,-6.16 -2.48,-2.69 -4.41,-5.95 -5.79,-9.78 -1.38,-3.83 -2.07,-8.2 -2.07,-13.1l0 -44.61 13.97 0 0 45.44c0,2.48 0.31,4.76 0.93,6.83 0.62,2.07 1.56,3.87 2.8,5.38 1.24,1.52 2.79,2.71 4.66,3.58 1.86,0.86 4,1.29 6.41,1.29 2.49,0 4.66,-0.43 6.53,-1.29 1.86,-0.87 3.41,-2.06 4.65,-3.58 1.25,-1.51 2.18,-3.31 2.8,-5.38 0.62,-2.07 0.93,-4.35 0.93,-6.83l0 -45.44 13.98 0 0 44.61c0,4.63 -0.68,8.85 -2.02,12.68 -1.35,3.83 -3.28,7.11 -5.8,9.84 -2.52,2.72 -5.56,4.84 -9.11,6.36 -3.55,1.52 -7.54,2.28 -11.96,2.28zm43.33 -1.66l0 -74.11 26.08 0c3.52,0 6.82,0.56 9.89,1.7 3.07,1.14 5.74,2.75 8.02,4.82 2.28,2.07 4.07,4.53 5.38,7.4 1.31,2.86 1.97,6.02 1.97,9.47 0,3.52 -0.66,6.71 -1.97,9.58 -1.31,2.86 -3.1,5.33 -5.38,7.4 -2.28,2.07 -4.95,3.67 -8.02,4.81 -3.07,1.14 -6.37,1.71 -9.89,1.71l-12.11 0 0 27.22 -13.97 0zm26.29 -40.47c3.66,0 6.42,-1.04 8.28,-3.11 1.86,-2.07 2.79,-4.45 2.79,-7.14 0,-1.31 -0.22,-2.59 -0.67,-3.83 -0.45,-1.24 -1.14,-2.33 -2.07,-3.26 -0.93,-0.93 -2.09,-1.67 -3.47,-2.23 -1.38,-0.55 -3,-0.82 -4.86,-0.82l-12.32 0 0 20.39 12.32 0z"/>
 </g>
</svg>
