<?xml version="1.0" encoding="UTF-8"?>
<!DOCTYPE svg PUBLIC "-//W3C//DTD SVG 1.1//EN" "http://www.w3.org/Graphics/SVG/1.1/DTD/svg11.dtd">
<!-- Creator: CorelDRAW 2017 -->
<svg xmlns="http://www.w3.org/2000/svg" xml:space="preserve" width="362px" height="98px" version="1.1" style="shape-rendering:geometricPrecision; text-rendering:geometricPrecision; image-rendering:optimizeQuality; fill-rule:evenodd; clip-rule:evenodd"
viewBox="0 0 139.84 37.87"
 xmlns:xlink="http://www.w3.org/1999/xlink">
 <defs>
  <style type="text/css">
   <![CDATA[
    .fil0 {fill:#293737;fill-rule:nonzero}
    .fil1 {fill:url(#id0);fill-rule:nonzero}
    .fil2 {fill:url(#id1);fill-rule:nonzero}
   ]]>
  </style>
  <linearGradient id="id0" gradientUnits="userSpaceOnUse" x1="119.82" y1="14.91" x2="121.02" y2="8.35">
   <stop offset="0" style="stop-opacity:1; stop-color:#59BC21"/>
   <stop offset="1" style="stop-opacity:1; stop-color:#79DE44"/>
  </linearGradient>
  <linearGradient id="id1" gradientUnits="userSpaceOnUse" x1="125.5" y1="19.9" x2="134.53" y2="-9.82">
   <stop offset="0" style="stop-opacity:1; stop-color:#009933"/>
   <stop offset="1" style="stop-opacity:1; stop-color:#33CC66"/>
  </linearGradient>
 </defs>
 <g id="Layer_x0020_1">
  <metadata id="CorelCorpID_0Corel-Layer"/>
  <g id="_2505041767152">
   <path class="fil0" d="M16.23 36.87c3.64,0 3.38,-4.85 0,-4.85l-11.3 0 0 -5.56 9.34 0c3.3,0 3.3,-4.86 0,-4.86l-9.34 0 0 -5.56 10.67 0c3.34,0 3.41,-4.81 0,-4.81l-13.3 0c-1.3,0 -2.3,0.96 -2.3,2.29l0 21.06c0,1.29 1,2.29 2.3,2.29l13.93 0z"/>
   <path class="fil0" d="M32.41 28.39c1.22,1.63 2.89,1.63 4.22,0l6.16 -7.79 0 13.72c0,1.63 1.03,2.55 2.37,2.55 1.18,0 2.22,-0.92 2.22,-2.55l0 -20.87c0,-2.56 -3,-3.15 -4.22,-1.63l-8.45 11.41 -8.16 -11c-0.63,-0.71 -1.26,-1.34 -2.33,-1.34 -0.6,0 -2.23,0.63 -2.23,2.56l0 20.87c0,1.63 1.04,2.55 2.23,2.55 1.33,0 2.67,-0.92 2.67,-2.55l0 -13.72 5.52 7.79z"/>
   <path class="fil0" d="M66.39 16.04c1.63,0 2.59,-1.33 2.59,-2.52 0,-1.33 -0.96,-2.29 -2.59,-2.29l-13.01 0c-1.63,0 -2.63,0.96 -2.63,2.29l0 21.06c0,1.29 1,2.29 2.63,2.29 1.29,0 2.22,-1 2.22,-2.29l0 -7.79 9.45 0c1.34,0 2.67,-1 2.67,-2.22 0,-1.3 -1.33,-2.63 -2.67,-2.63l-9.45 0 0 -5.9 10.79 0z"/>
   <path class="fil0" d="M71.79 35.61l1.59 -3.26 13.68 0 1.63 3.26c1.33,2.9 5.82,0.6 4.3,-2.29l-10.45 -20.8c-0.93,-2.03 -3.6,-1.96 -4.6,0l-10.64 20.8c-0.74,1.55 0,2.89 1.19,3.55 1.33,0.26 2.71,0 3.3,-1.26zm3.89 -8.15l4.56 -9.15 4.19 9.15 -8.75 0z"/>
   <path class="fil0" d="M99.56 34.58c0,3.3 4.9,3.22 4.9,0l0 -18.72 6.15 0c3.3,0 3.3,-4.74 0,-4.74l-17.53 0c-3.23,0 -3.23,4.74 0,4.74l6.48 0 0 18.72z"/>
   <path class="fil0" d="M116.59 14.74c-1.74,1.91 -2.92,4.28 -3.49,6.72 -1.21,6.75 1.95,14.55 10.92,16.16 8.94,1.6 14.68,-4.6 15.6,-11.4 0.55,-3.06 0.08,-6.37 -1.51,-9.16l-3.84 3.03c0.89,1.78 1.13,3.84 0.79,5.73 -0.73,4.08 -4.45,8.01 -10.18,6.98 -5.76,-1.03 -7.84,-6 -7.11,-10.09 0.25,-1.38 0.82,-2.74 1.67,-3.9l-2.85 -4.07z"/>
   <path class="fil1" d="M120.28 14.93c1.58,0.29 2.98,-1.27 1.84,-1.98 -0.76,-0.47 -1.64,-0.74 -2.59,-0.74 0.99,-0.23 1.99,-0.13 2.88,0.21 0.21,0.09 0.42,-0.12 0.35,-0.34 -0.49,-1.52 -2.28,-2.09 -3.94,-0.74 -0.87,0.71 -1.2,0.86 -1.21,0.87 0.58,0.57 1.23,2.51 2.67,2.72z"/>
   <path class="fil2" d="M123.99 8.61c0.09,-2.54 1.36,-4.46 3.71,-5.52 -1.05,1.37 -1.75,2.9 -2.11,4.49 -0.55,2.47 -1.14,4.09 -1.35,11.96 -0.02,0.8 0.62,1.46 1.42,1.45 0.58,-0.01 1.08,-0.38 1.3,-0.91 0.34,-0.81 0.89,-1.65 1.78,-2.42 0.85,0.94 2.15,1.44 3.49,1.2 2.46,-0.37 3.61,-3.71 4.6,-4.69 -0.02,-0.01 -0.58,-0.27 -2.09,-1.49 -4.94,-4.02 -8.09,2.31 -6.13,1.69 1.39,-0.45 2.91,-0.55 4.44,-0.2 -2.59,0 -4.97,1.18 -6.56,3.11 0.13,-3.03 0.33,-4.93 0.56,-6.34 1.32,-0.04 3.08,-1.11 4.04,-2.97 1.67,-2.99 0.9,-6.04 0.65,-7.97l0 0c-1.31,1.26 -6.99,-0.22 -9.24,3.64 -1,1.71 -0.71,3.79 0.34,5.31 0.33,0.48 1.12,0.25 1.15,-0.34z"/>
  </g>
 </g>
</svg>
