<?xml version="1.0" encoding="UTF-8"?>
<!DOCTYPE svg PUBLIC "-//W3C//DTD SVG 1.1//EN" "http://www.w3.org/Graphics/SVG/1.1/DTD/svg11.dtd">
<!-- Creator: CorelDRAW 2017 -->
<svg xmlns="http://www.w3.org/2000/svg" xml:space="preserve" width="444px" height="179px" version="1.1" style="shape-rendering:geometricPrecision; text-rendering:geometricPrecision; image-rendering:optimizeQuality; fill-rule:evenodd; clip-rule:evenodd"
viewBox="0 0 171.52 69.3"
 xmlns:xlink="http://www.w3.org/1999/xlink">
 <defs>
  <style type="text/css">
   <![CDATA[
    .fil0 {fill:#293737;fill-rule:nonzero}
    .fil3 {fill:#293737;fill-rule:nonzero}
    .fil1 {fill:url(#id0);fill-rule:nonzero}
    .fil2 {fill:url(#id1);fill-rule:nonzero}
   ]]>
  </style>
  <linearGradient id="id0" gradientUnits="userSpaceOnUse" x1="146.96" y1="18.29" x2="148.44" y2="10.24">
   <stop offset="0" style="stop-opacity:1; stop-color:#59BC21"/>
   <stop offset="1" style="stop-opacity:1; stop-color:#79DE44"/>
  </linearGradient>
  <linearGradient id="id1" gradientUnits="userSpaceOnUse" x1="153.92" y1="24.4" x2="165" y2="-12.04">
   <stop offset="0" style="stop-opacity:1; stop-color:#009933"/>
   <stop offset="1" style="stop-opacity:1; stop-color:#33CC66"/>
  </linearGradient>
 </defs>
 <g id="Layer_x0020_1">
  <metadata id="CorelCorpID_0Corel-Layer"/>
  <g id="_1982863956784">
   <path class="fil0" d="M19.91 45.23c4.46,0 4.14,-5.96 0,-5.96l-13.86 0 0 -6.82 11.45 0c4.05,0 4.05,-5.95 0,-5.95l-11.45 0 0 -6.82 13.09 0c4.09,0 4.18,-5.91 0,-5.91l-16.32 0c-1.59,0 -2.82,1.18 -2.82,2.82l0 25.82c0,1.59 1.23,2.82 2.82,2.82l17.09 0z"/>
   <path class="fil0" d="M39.75 34.82c1.5,2 3.54,2 5.18,0l7.55 -9.55 0 16.82c0,2 1.27,3.14 2.91,3.14 1.45,0 2.73,-1.14 2.73,-3.14l0 -25.59c0,-3.14 -3.69,-3.87 -5.19,-2l-10.36 14 -10 -13.5c-0.78,-0.87 -1.55,-1.64 -2.87,-1.64 -0.72,0 -2.72,0.77 -2.72,3.14l0 25.59c0,2 1.27,3.14 2.72,3.14 1.64,0 3.28,-1.14 3.28,-3.14l0 -16.82 6.77 9.55z"/>
   <path class="fil0" d="M81.43 19.68c1.99,0 3.18,-1.64 3.18,-3.09 0,-1.64 -1.19,-2.82 -3.18,-2.82l-15.96 0c-2,0 -3.23,1.18 -3.23,2.82l0 25.82c0,1.59 1.23,2.82 3.23,2.82 1.59,0 2.73,-1.23 2.73,-2.82l0 -9.55 11.59 0c1.64,0 3.27,-1.23 3.27,-2.73 0,-1.59 -1.63,-3.22 -3.27,-3.22l-11.59 0 0 -7.23 13.23 0z"/>
   <path class="fil0" d="M88.05 43.68l1.96 -4 16.77 0 2 4c1.64,3.55 7.14,0.73 5.27,-2.82l-12.82 -25.5c-1.13,-2.5 -4.41,-2.41 -5.63,0l-13.05 25.5c-0.91,1.91 0,3.55 1.45,4.37 1.64,0.32 3.32,0 4.05,-1.55zm4.77 -10l5.59 -11.23 5.14 11.23 -10.73 0z"/>
   <path class="fil0" d="M122.12 42.41c0,4.04 6,3.95 6,0l0 -22.96 7.54 0c4.05,0 4.05,-5.82 0,-5.82l-21.5 0c-3.95,0 -3.95,5.82 0,5.82l7.96 0 0 22.96z"/>
   <path class="fil0" d="M143 18.08c-2.13,2.34 -3.59,5.25 -4.28,8.24 -1.49,8.28 2.39,17.84 13.39,19.82 10.96,1.97 18.01,-5.64 19.14,-13.98 0.67,-3.75 0.09,-7.81 -1.85,-11.23l-4.72 3.71c1.09,2.19 1.39,4.71 0.97,7.03 -0.89,5.01 -5.45,9.82 -12.48,8.56 -7.07,-1.27 -9.62,-7.36 -8.72,-12.37 0.3,-1.7 1,-3.37 2.05,-4.79l-3.5 -4.99z"/>
   <path class="fil1" d="M147.53 18.31c1.94,0.35 3.66,-1.56 2.25,-2.43 -0.92,-0.58 -2.01,-0.91 -3.18,-0.91 1.22,-0.28 2.44,-0.16 3.53,0.27 0.27,0.1 0.53,-0.15 0.44,-0.42 -0.6,-1.87 -2.8,-2.57 -4.84,-0.91 -1.07,0.87 -1.47,1.06 -1.48,1.06 0.71,0.71 1.51,3.08 3.28,3.34z"/>
   <path class="fil2" d="M152.07 10.56c0.12,-3.11 1.67,-5.46 4.56,-6.77 -1.3,1.68 -2.15,3.56 -2.59,5.51 -0.68,3.03 -1.39,5.01 -1.66,14.67 -0.02,0.97 0.77,1.78 1.75,1.77 0.71,-0.01 1.31,-0.46 1.59,-1.11 0.41,-1 1.09,-2.03 2.19,-2.97 1.04,1.15 2.63,1.77 4.27,1.47 3.02,-0.45 4.43,-4.54 5.64,-5.75 -0.01,-0.01 -0.71,-0.33 -2.56,-1.83 -6.05,-4.92 -9.92,2.84 -7.52,2.07 1.71,-0.55 3.57,-0.67 5.44,-0.24 -3.17,0 -6.09,1.45 -8.04,3.81 0.16,-3.71 0.41,-6.04 0.69,-7.77 1.62,-0.05 3.77,-1.36 4.96,-3.65 2.04,-3.66 1.1,-7.4 0.79,-9.77l0 0c-1.6,1.55 -8.57,-0.27 -11.33,4.47 -1.23,2.09 -0.87,4.64 0.41,6.5 0.41,0.59 1.38,0.31 1.41,-0.41z"/>
  </g>
  <path class="fil3" d="M22.46 68.81c0.82,0 1.43,-0.64 1.43,-1.46l0 -5.14 7.65 0 0 5.14c0,0.82 0.75,1.46 1.6,1.46 0.82,0 1.45,-0.64 1.45,-1.46l0 -13.33c0,-0.85 -0.63,-1.46 -1.45,-1.46 -0.85,0 -1.6,0.61 -1.6,1.46l0 5.11 -7.65 0 0 -5.11c0,-0.85 -0.61,-1.46 -1.43,-1.46 -1.06,0 -1.67,0.61 -1.67,1.46l0 13.33c0,0.82 0.61,1.46 1.67,1.46zm33.22 -8.22c0,-5.56 -4.3,-8.41 -8.41,-8.62 -4.34,0 -8.85,2.84 -8.85,8.62 0,5.75 4.51,8.64 8.85,8.45 4.11,0 8.41,-2.89 8.41,-8.45zm-3.08 0c0,3.68 -2.89,5.56 -5.58,5.56 -2.63,0 -5.5,-1.88 -5.5,-5.56 0,-3.71 2.87,-5.56 5.5,-5.56 2.69,0 5.58,1.85 5.58,5.56zm7.1 6.78c0,0.85 0.65,1.44 1.47,1.44l7.77 0c2.35,0 2.31,-3.08 0,-3.08l-6.38 0 0 -11.76c0,-0.78 -0.63,-1.43 -1.39,-1.43 -0.82,0 -1.47,0.65 -1.47,1.43l0 13.4zm21.55 -11.95c6.62,0 6.34,10.52 0,10.52l-3.9 0 0 -10.52 3.9 0zm0.21 13.39c10.28,0 10.52,-16.25 -0.21,-16.25l-5.38 0c-0.77,0 -1.62,0.61 -1.62,1.46l0 13.33c0,1.03 0.85,1.46 1.62,1.46l5.59 0zm11.84 -1.44c0,2 3.1,1.95 3.1,0l0 -13.4c0,-2 -3.1,-1.93 -3.1,0l0 13.4zm7.75 -0.18c0,1.03 0.75,1.62 1.59,1.62 0.85,0 1.48,-0.59 1.48,-1.62l0 -9.07 7.77 9.86c0.68,0.64 1.08,0.83 1.9,0.83 0.61,-0.19 1.25,-0.59 1.25,-1.62l0 -13.22c0,-0.78 -0.82,-1.62 -1.67,-1.62 -0.8,0 -1.48,0.84 -1.48,1.62l0 9.11 -7.77 -9.72c-0.63,-0.61 -0.82,-0.82 -1.67,-0.82 -1.22,0 -1.4,0.82 -1.4,1.66l0 12.99zm32.84 -1.46l0 -5c0,-0.73 -0.8,-1.39 -1.66,-1.39l-4.7 0c-1.88,0 -2.09,2.87 0,2.87l3.52 0 0 2.89c-0.87,0.63 -2.09,1.05 -3.52,1.05 -3.08,0 -5.38,-2.11 -5.38,-5.58 0,-3.31 2.75,-5.59 5.59,-5.59 1.22,0 2.44,0.63 3.31,1.48 1.41,1.24 3.48,-0.85 2.04,-2.26 -1.45,-1.43 -3.49,-2.06 -5.35,-2.06 -4.95,0 -8.64,3.68 -8.64,8.43 0,5.58 3.5,8.4 8.43,8.4 2.07,0 4.11,-0.59 5.78,-1.97 0.39,-0.45 0.58,-0.85 0.58,-1.27zm13.62 -1.6c-0.35,3.34 -5.3,2.35 -7.23,1.04 -0.8,-0.66 -1.48,-0.45 -2.09,0.16 -0.42,0.63 -0.44,1.67 0.33,2.3 3.24,2.68 11.88,2.54 12.04,-3.43 0.17,-6.24 -10.04,-4.03 -9.41,-7.88 0.49,-2.45 4.44,-1.93 6.17,-0.83 1.41,1.04 3.1,-1 1.51,-2.3 -3.24,-2.48 -10.12,-1.66 -10.66,2.89 -0.73,6.67 9.04,4.58 9.34,8.05z"/>
 </g>
</svg>
